<?xml version="1.0" standalone="no"?>
<!DOCTYPE svg PUBLIC "-//W3C//DTD SVG 1.1//EN" "http://www.w3.org/Graphics/SVG/1.1/DTD/svg11.dtd" >
<svg>
<metadata>
Created by FontForge 20090622 at Tue Apr  9 03:42:03 2019
 By deploy user
&#194;&#169; 1990, 2002 Adobe Systems Incorporated. All rights reserved. &#194;&#169; 1990, 2002 The Monotype Corporation PLC. All rights reserved.
</metadata>
<defs>
<font id="BemboStd-SemiboldItalic" horiz-adv-x="297" >
  <font-face 
    font-family="Bembo Std Semibold"
    font-weight="600"
    font-style="italic"
    font-stretch="normal"
    units-per-em="1000"
    panose-1="2 4 6 7 6 3 6 9 8 4"
    ascent="672"
    descent="-328"
    x-height="413"
    cap-height="622"
    bbox="-200 -232 1140 864"
    underline-thickness="50"
    underline-position="-50"
    slope="-11.5"
    unicode-range="U+0020-U+FB04"
  />
<missing-glyph horiz-adv-x="606" 
d="M106 0v700h500v-700h-500zM356 395l170 255h-340zM386 350l170 -255v510zM186 50h340l-170 255zM156 605v-510l170 255z" />
    <glyph glyph-name="f_f" unicode="ff" horiz-adv-x="510" 
d="M461 402h84l-8 -40h-82l-32 -202q-18 -114 -43.5 -191.5t-70.5 -125.5q-70 -74 -172 -74q-34 0 -54.5 13.5t-20.5 37.5q0 11 5 19q-71 -71 -169 -71q-34 0 -54.5 14t-20.5 38q0 18 12.5 29t30.5 11q20 0 46 -24q29 -28 53 -28q49 0 75 68t50 217l42 268h-69l5 25
q41 6 72 16q11 44 19.5 71.5t28.5 69.5t43.5 66.5t63 43t89.5 18.5q91 0 91 -49q0 -9 -2 -13q56 63 145 63q78 0 78 -50q0 -17 -11 -28t-30 -11q-16 0 -26.5 6.5t-30.5 24.5q-22 21 -40 21q-19 0 -31.5 -11.5t-30.5 -65t-35 -156.5zM222 402h159q27 121 76 187
q-10 -6 -25 -6q-22 0 -51 26q-31 28 -56 28q-41 0 -63 -53q-18 -47 -40 -182zM215 361l-32 -202q-16 -103 -39 -179t-67 -130q14 9 30 9q20 0 45 -23q27 -27 52 -27q50 0 76 68.5t49 213.5l42 270h-156z" />
    <glyph glyph-name="f_f_i" unicode="ffi" horiz-adv-x="739" 
d="M462 402h165q46 0 77 7l-51 -327q-1 -5 -2 -13.5t-2 -13.5t-1 -7q0 -11 9 -11q5 0 27.5 17.5t41.5 37.5l17 -16q-96 -88 -135 -88q-17 0 -29.5 11.5t-12.5 37.5q0 23 6 63l42 261h-160l-32 -202q-18 -115 -43 -192t-70 -125q-70 -74 -172 -74q-33 0 -54.5 13.5
t-21.5 37.5q0 19 13 29t32 10q20 0 45 -23q28 -27 52 -27q54 0 84 89q20 60 51 255l33 209h-159l-32 -202q-18 -115 -43 -192t-70 -125q-70 -74 -172 -74q-34 0 -54.5 14t-20.5 37q0 17 12 28.5t31 11.5q20 0 46 -24q30 -27 52 -27q54 0 84 87q20 61 51 257l33 209h-69l5 25
q44 7 72 16q25 120 80 183q72 86 184 86q34 0 55.5 -13t21.5 -38q0 -12 -6 -24q70 70 160 70q42 0 68.5 -17t26.5 -42q0 -15 -11 -28t-30 -13q-17 0 -26 6.5t-29 30.5q-22 25 -48 25q-29 0 -51 -20.5t-35.5 -58.5t-20.5 -70t-14 -77zM219 402h162q28 118 82 184
q-13 -9 -27 -9q-24 0 -52 28q-26 25 -45 25q-25 0 -45 -18t-34 -54t-23 -70.5t-18 -85.5z" />
    <glyph glyph-name="f_f_l" unicode="ffl" horiz-adv-x="739" 
d="M688 661l23 11h34l-94 -596q-4 -20 -4 -29q0 -10 9 -10q6 0 28.5 18t40.5 37l17 -15q-89 -89 -135 -89q-17 0 -29.5 11.5t-12.5 35.5q0 19 14 110l34 216h-158l-33 -202q-18 -115 -43 -192t-70 -125q-70 -74 -172 -74q-33 0 -54.5 13.5t-21.5 37.5q0 19 13 29t32 10
q20 0 45 -23q28 -27 53 -27q54 0 79 76.5t55 267.5l33 209h-160l-31 -202q-36 -235 -113 -317q-71 -74 -172 -74q-34 0 -54.5 13.5t-20.5 37.5q0 18 13 29t30 11q21 0 47 -24q28 -27 52 -27q53 0 83 88q21 61 51 256l33 209h-69l5 25q39 5 70 16q27 119 80 183q73 86 185 86
q34 0 55 -13.5t21 -36.5q0 -15 -7 -25q69 76 163 76q30 0 56 -11zM620 402l29 185q-33 46 -66 46q-91 0 -122 -231h159zM217 402h163q26 117 82 185q-15 -10 -28 -10q-24 0 -52 28q-26 25 -46 25q-42 0 -70 -55t-49 -173z" />
    <glyph glyph-name="f_i" unicode="fi" horiz-adv-x="504" 
d="M224 402h142q58 0 100 7l-54 -338q-5 -34 6 -34q14 0 70 56l16 -16q-90 -88 -135 -88q-53 0 -41 75l47 297h-160l-35 -230q-33 -213 -112 -292q-71 -71 -167 -71q-35 0 -56 14t-21 38q0 17 12 28t31 11q20 0 48 -25t51 -25q40 0 68.5 48t45.5 162l52 342h-68l5 25
q46 7 72 16q30 128 96.5 198.5t155.5 70.5q41 0 68.5 -17t27.5 -43q0 -17 -12 -29t-30 -12q-25 0 -50 31.5t-52 31.5q-47 0 -76 -56.5t-45 -174.5z" />
    <glyph glyph-name="f_l" unicode="fl" horiz-adv-x="504" 
d="M451 661l23 10h34l-94 -594q-6 -39 3 -39q16 0 71 55l17 -16q-88 -88 -133 -88q-29 0 -39 17t-4 56l47 299h-161l-39 -261q-11 -75 -40.5 -149.5t-66.5 -111.5q-71 -71 -169 -71q-35 0 -55.5 14t-20.5 38q0 16 12.5 27.5t30.5 11.5q20 0 49 -25.5t50 -25.5q83 0 114 206
l52 347h-69l5 25q42 7 72 16q30 140 100.5 204.5t153.5 64.5q30 0 57 -10zM223 402h159l30 185q-35 46 -68 46q-92 0 -121 -231z" />
    <glyph glyph-name=".notdef" horiz-adv-x="606" 
d="M106 0v700h500v-700h-500zM356 395l170 255h-340zM386 350l170 -255v510zM186 50h340l-170 255zM156 605v-510l170 255z" />
    <glyph glyph-name=".null" horiz-adv-x="0" 
 />
    <glyph glyph-name="nonmarkingreturn" horiz-adv-x="333" 
 />
    <glyph glyph-name="space" unicode=" " horiz-adv-x="333" 
 />
    <glyph glyph-name="exclam" unicode="!" horiz-adv-x="279" 
d="M164 173h-27l50 423q3 25 10.5 31.5t33.5 6.5h32q22 0 29.5 -3.5t7.5 -14.5q0 -6 -6 -27zM130 116q20 0 33.5 -15.5t13.5 -38.5q0 -30 -18.5 -51.5t-43.5 -21.5q-21 0 -34.5 15t-13.5 39q0 29 19 51t44 22z" />
    <glyph glyph-name="quotedbl" unicode="&#x22;" horiz-adv-x="555" 
d="M420 374l-34 143q-9 41 -9 64q0 25 14.5 41t37.5 16t38 -15t15 -38q0 -25 -10 -68l-33 -143h-19zM241 374l-34 143q-9 41 -9 64q0 25 14.5 41t37.5 16q22 0 37.5 -15t15.5 -38q0 -25 -10 -68l-33 -143h-19z" />
    <glyph glyph-name="numbersign" unicode="#" horiz-adv-x="668" 
d="M78 477h157l42 194h70l-42 -194h195l41 194h70l-41 -194h92v-70h-105l-36 -171h141v-70h-155l-41 -193h-70l41 193h-196l-41 -193h-70l41 193h-93v70h107l36 171h-143v70zM291 407l-36 -171h196l36 171h-196z" />
    <glyph glyph-name="dollar" unicode="$" horiz-adv-x="424" 
d="M333 593l11 53h25l-11 -54q41 -10 67 -42.5t26 -73.5q0 -28 -12 -46t-31 -18q-17 0 -27.5 12.5t-10.5 33.5q0 7 4 28t4 26q0 28 -28 43l-51 -248q93 -85 93 -165q0 -60 -41 -100.5t-116 -50.5l-14 -72h-25l14 70q-20 -2 -43 4l-14 -74h-25l16 81q-43 15 -69 45t-26 65
q0 25 14 42.5t34 17.5q17 0 28 -12.5t11 -31.5q0 -4 -3 -22.5t-3 -23.5q0 -28 21 -45l50 247q-72 79 -72 156q0 60 36.5 101.5t98.5 52.5l11 54h25l-11 -52q25 2 44 -1zM279 330l48 233q-21 5 -43 0l-40 -195q1 -1 35 -38zM257 222q-6 8 -18.5 20t-16.5 17l-48 -234
q18 -8 42 -6zM278 201l-36 -179q31 8 50.5 34t19.5 60q0 49 -34 85zM224 395l33 160q-56 -26 -56 -85q0 -37 23 -75z" />
    <glyph glyph-name="percent" unicode="%" horiz-adv-x="766" 
d="M265 566q0 51 -33 51q-16 0 -31 -15q-29 -29 -49 -105.5t-20 -125.5q0 -52 32 -52q18 0 32 14q21 21 45 100t24 133zM330 524q0 -78 -48 -152t-119 -74q-43 0 -69.5 32.5t-26.5 85.5q0 41 18.5 91t58.5 90.5t90 40.5q43 0 69.5 -32t26.5 -82zM86 -40l574 678h61
l-574 -678h-61zM779 217q0 -78 -48 -152t-119 -74q-43 0 -69.5 32.5t-26.5 85.5q0 41 18.5 91t58.5 90.5t90 40.5q43 0 69.5 -32t26.5 -82zM714 259q0 51 -33 51q-16 0 -31 -15q-29 -29 -49 -105.5t-20 -125.5q0 -52 32 -52q18 0 32 14q21 21 45 100t24 133z" />
    <glyph glyph-name="ampersand" unicode="&#x26;" horiz-adv-x="739" 
d="M338 378q23 0 31 -4.5t8 -16.5q0 -21 -24 -21q-3 0 -17 1.5t-22 1.5q-61 0 -95.5 -35t-34.5 -98q0 -78 54 -126t141 -48q91 0 158.5 48.5t67.5 114.5q0 41 -30 64t-71 23q-29 0 -48.5 -7.5t-19.5 -19.5q0 -5 13 -17t13 -27q0 -13 -9.5 -22t-23.5 -9q-17 0 -28 13.5
t-11 35.5q0 47 45 78.5t113 31.5q26 0 61.5 -4t52.5 -4q43 0 43 21q0 6 -10 20.5t-10 23.5q0 13 9 21.5t22 8.5q17 0 28.5 -12.5t11.5 -30.5q0 -43 -42.5 -72.5t-110.5 -35.5q34 -29 34 -79q0 -30 -16 -64t-49.5 -68.5t-97 -57t-145.5 -22.5q-62 0 -110.5 15.5t-75 38
t-43.5 51t-22.5 50t-5.5 39.5q0 70 55 121t142 62v2q-53 8 -86 39t-33 73q0 70 70 116.5t176 46.5q49 0 86 -12t56 -30.5t27.5 -36t8.5 -32.5q0 -17 -10.5 -28t-26.5 -11q-19 0 -35 16q-10 10 -17.5 39t-22.5 44q-21 21 -63 21q-59 0 -99 -44.5t-40 -108.5q0 -43 18 -60
t60 -17z" />
    <glyph glyph-name="quotesingle" unicode="'" horiz-adv-x="278" 
d="M207 374l-34 143q-9 41 -9 64q0 25 14.5 41t37.5 16q22 0 37.5 -15t15.5 -38q0 -25 -10 -68l-33 -143h-19z" />
    <glyph glyph-name="parenleft" unicode="(" horiz-adv-x="333" 
d="M234 -210l-25 -9q-119 187 -119 349q0 146 85.5 288t226.5 239l15 -23q-105 -93 -174 -253t-69 -311q0 -142 60 -280z" />
    <glyph glyph-name="parenright" unicode=")" horiz-adv-x="333" 
d="M139 648l25 9q119 -187 119 -349q0 -146 -85.5 -288t-226.5 -239l-15 23q105 93 174 253t69 311q0 142 -60 280z" />
    <glyph glyph-name="asterisk" unicode="*" horiz-adv-x="514" 
d="M305 352l-140 -83l-26 25l97 134l-122 108l16 30l157 -51l65 156l34 -7v-169l165 -14v-34l-153 -52l37 -162l-33 -13z" />
    <glyph glyph-name="plus" unicode="+" horiz-adv-x="667" 
d="M138 315h198v198h67v-198h198v-67h-198v-198h-67v198h-198v67z" />
    <glyph glyph-name="comma" unicode="," horiz-adv-x="279" 
d="M31 -166l-12 20q92 42 92 107q0 26 -17 54t-17 46q0 24 15 39.5t38 15.5q29 0 46.5 -23.5t17.5 -60.5q0 -63 -45 -118t-118 -80z" />
    <glyph glyph-name="hyphen" unicode="-" horiz-adv-x="333" 
d="M53 163l16 78h248l-16 -78h-248z" />
    <glyph glyph-name="period" unicode="." horiz-adv-x="279" 
d="M131 116q20 0 33.5 -15.5t13.5 -38.5q0 -30 -18.5 -51.5t-43.5 -21.5q-21 0 -34.5 15t-13.5 39q0 29 19 51t44 22z" />
    <glyph glyph-name="slash" unicode="/" horiz-adv-x="477" 
d="M428 671h71l-339 -687h-70z" />
    <glyph glyph-name="zero" unicode="0" horiz-adv-x="504" 
d="M506 420q0 -94 -34.5 -193.5t-100 -171t-140.5 -71.5q-69 0 -111 62t-42 163q0 64 20.5 138.5t55.5 139.5t87 108t109 43q69 0 112.5 -60.5t43.5 -157.5zM412 500q0 51 -16.5 79.5t-47.5 28.5q-27 0 -52 -25q-50 -50 -87 -207.5t-37 -255.5q0 -106 62 -106q30 0 53 23
q47 47 86 209t39 254z" />
    <glyph glyph-name="one" unicode="1" horiz-adv-x="504" 
d="M369 0h-260l5 25q53 1 69.5 15t27.5 67l85 415q-81 -60 -164 -94l7 34q166 81 229 175h47l-107 -525q-5 -25 -5 -47q0 -17 21.5 -28.5t49.5 -11.5z" />
    <glyph glyph-name="two" unicode="2" horiz-adv-x="504" 
d="M398 0h-357v24l123 125q128 129 175 206t47 140q0 38 -24 62t-61 24q-87 0 -134 -112h-30q21 78 74.5 123.5t124.5 45.5q64 0 108 -41.5t44 -102.5q0 -59 -59.5 -133.5t-219.5 -215.5l-66 -58h201q10 0 16 0.5t11.5 2.5t7.5 3.5t5 8t4 9.5t4.5 14.5l5.5 18.5h29z" />
    <glyph glyph-name="three" unicode="3" horiz-adv-x="504" 
d="M193 320l7 32q88 54 128.5 95.5t40.5 79.5q0 26 -16.5 44t-41.5 18q-47 0 -106 -62l-18 16q70 95 162 95q51 0 82.5 -27t31.5 -70q0 -39 -33.5 -71.5t-114.5 -71.5v-2q118 -3 118 -120q0 -66 -45.5 -135t-115.5 -113t-137 -44q-38 0 -61.5 13t-23.5 35q0 18 11 31.5
t27 13.5q11 0 46 -22t65 -22q37 0 69 38.5t48 88t16 91.5q0 40 -20 65.5t-51 25.5q-26 0 -68 -22z" />
    <glyph glyph-name="four" unicode="4" horiz-adv-x="504" 
d="M241 -16l38 189h-204v72l353 393h37l-80 -393h95l-15 -72h-95l-38 -189h-91zM294 245l51 252l-2 2l-227 -254h178z" />
    <glyph glyph-name="five" unicode="5" horiz-adv-x="504" 
d="M492 638l-22 -108q-16 -3 -61 -3q-28 0 -84.5 1.5t-77.5 1.5l-33 -123q19 5 32 7q9 2 25 2q59 0 96.5 -41.5t37.5 -108.5q0 -102 -93 -192t-198 -90q-38 0 -61 15t-23 40q0 17 12 28t30 11t48.5 -23t58.5 -23q54 0 98 67t44 141q0 43 -22 68t-60 25q-37 0 -64 -24l-16 14
l80 299q57 -3 177 -3q27 0 35.5 3.5t14.5 15.5h26z" />
    <glyph glyph-name="six" unicode="6" horiz-adv-x="504" 
d="M531 638l-6 -28q-98 -33 -170 -104t-128 -189l2 -2q61 41 109 41q53 0 85.5 -36t32.5 -95q0 -92 -69 -166.5t-154 -74.5q-65 0 -105.5 51t-40.5 133q0 113 67.5 218t169 170.5t207.5 81.5zM213 272q-37 -94 -37 -173q0 -38 14.5 -61.5t39.5 -23.5q38 0 69.5 45t46.5 100
t15 98q0 29 -13.5 45.5t-36.5 16.5q-37 0 -98 -47z" />
    <glyph glyph-name="seven" unicode="7" horiz-adv-x="504" 
d="M258 -16h-72l278 547h-227q-35 0 -47.5 -14t-29.5 -75h-28l43 180h361v-31z" />
    <glyph glyph-name="eight" unicode="8" horiz-adv-x="504" 
d="M82 127q0 55 37 95t126 93q-78 83 -78 153t53.5 120t129.5 50q64 0 106 -34t42 -87q0 -49 -34.5 -87t-122.5 -86q99 -106 99 -184q0 -71 -58.5 -123.5t-138.5 -52.5q-70 0 -115.5 40.5t-45.5 102.5zM321 364q99 80 99 155q0 40 -22 65t-57 25q-42 0 -71 -31.5t-29 -75.5
q0 -28 17 -57.5t63 -80.5zM263 293q-103 -78 -103 -181q0 -45 22.5 -72t60.5 -27q44 0 78 35.5t34 81.5q0 67 -92 163z" />
    <glyph glyph-name="nine" unicode="9" horiz-adv-x="504" 
d="M53 -16l6 28q98 33 170 104t128 189l-2 2q-37 -24 -59 -32q-26 -9 -50 -9q-53 0 -85.5 36t-32.5 95q0 92 69 166.5t154 74.5q65 0 105.5 -51t40.5 -133q0 -113 -67.5 -218t-169 -170.5t-207.5 -81.5zM371 350q37 94 37 173q0 38 -14.5 61.5t-39.5 23.5q-38 0 -69.5 -45
t-46.5 -100t-15 -98q0 -29 13.5 -45.5t36.5 -16.5q37 0 98 47z" />
    <glyph glyph-name="colon" unicode=":" horiz-adv-x="279" 
d="M194 413q20 0 33.5 -15.5t13.5 -38.5q0 -30 -18.5 -51.5t-43.5 -21.5q-21 0 -34.5 15t-13.5 39q0 29 19 51t44 22zM131 116q20 0 33.5 -15.5t13.5 -38.5q0 -30 -18.5 -51.5t-43.5 -21.5q-21 0 -34.5 15t-13.5 39q0 29 19 51t44 22z" />
    <glyph glyph-name="semicolon" unicode=";" horiz-adv-x="279" 
d="M31 -166l-12 20q92 42 92 107q0 26 -17 54t-17 46q0 24 15 39.5t38 15.5q29 0 46.5 -23.5t17.5 -60.5q0 -63 -45 -118t-118 -80zM194 413q20 0 33.5 -15.5t13.5 -38.5q0 -30 -18.5 -51.5t-43.5 -21.5q-21 0 -34.5 15t-13.5 39q0 29 19 51t44 22z" />
    <glyph glyph-name="less" unicode="&#x3c;" horiz-adv-x="667" 
d="M601 58l-462 194v60l462 194v-72l-372 -152l372 -152v-72z" />
    <glyph glyph-name="equal" unicode="=" horiz-adv-x="667" 
d="M138 416h463v-67h-463v67zM138 217h463v-67h-463v67z" />
    <glyph glyph-name="greater" unicode="&#x3e;" horiz-adv-x="667" 
d="M139 58v72l373 152l-373 152v72l462 -194v-60z" />
    <glyph glyph-name="question" unicode="?" horiz-adv-x="324" 
d="M145 172h-28q4 120 57 173q18 18 64.5 41t63.5 40q20 20 20 48q0 27 -20.5 44t-52.5 17q-26 0 -61 -9t-43 -9q-17 0 -28.5 14t-11.5 36q0 28 30.5 47.5t85.5 19.5q63 0 101 -47t38 -124q0 -93 -52 -145q-14 -14 -67 -42.5t-64 -39.5q-20 -20 -32 -64zM113 116
q20 0 33.5 -15.5t13.5 -38.5q0 -30 -18.5 -51.5t-43.5 -21.5q-21 0 -34.5 15t-13.5 39q0 29 19 51t44 22z" />
    <glyph glyph-name="at" unicode="@" horiz-adv-x="832" 
d="M645 384l-80 -283q-9 -34 -9 -49q0 -13 9.5 -23t22.5 -10q19 0 47.5 16t59.5 45.5t52.5 84.5t21.5 121q0 117 -76 191t-196 74q-154 0 -261 -116t-107 -282q0 -146 93 -239.5t238 -93.5q116 0 207.5 62t135.5 171h25q-44 -121 -142.5 -189.5t-226.5 -68.5
q-162 0 -267 105t-105 268q0 172 115.5 289.5t284.5 117.5q147 0 227 -83t80 -205q0 -74 -28 -141t-84.5 -112t-130.5 -45q-35 0 -55.5 17t-20.5 47q0 29 9 60l-2 2q-49 -72 -84.5 -99.5t-70.5 -27.5q-32 0 -52.5 27t-20.5 68q0 56 23.5 113.5t58 99t74.5 67.5t72 26
q52 0 63 -62h2l13 48zM529 305q0 26 -11.5 42.5t-29.5 16.5q-44 0 -95 -99.5t-51 -163.5q0 -20 11 -34.5t25 -14.5q25 0 60 35q39 39 65 101t26 117z" />
    <glyph glyph-name="A" unicode="A" horiz-adv-x="721" 
d="M5 0l5 27q39 0 69 20.5t67 70.5l380 520h87v-541q0 -43 16.5 -56.5t70.5 -13.5l-5 -27h-291l5 27q64 0 83.5 21.5t19.5 84.5v121h-226l-81 -111q-43 -59 -43 -77q0 -22 19.5 -30.5t60.5 -8.5l-5 -27h-232zM321 301h191v261h-2z" />
    <glyph glyph-name="B" unicode="B" horiz-adv-x="622" 
d="M132 622h316q82 0 127.5 -39t45.5 -93q0 -56 -42.5 -93.5t-120.5 -48.5v-2q70 -18 107.5 -59.5t37.5 -101.5q0 -31 -12 -61t-37.5 -59t-74.5 -47t-115 -18h-347l5 27q54 0 73.5 26t35.5 103l69 335q7 34 7 54q0 27 -19.5 38.5t-60.5 11.5zM275 368h69q82 0 124.5 37
t42.5 94q0 91 -107 91h-83zM269 336l-30 -148q-13 -62 -13 -85q0 -71 101 -71q75 0 118 43.5t43 118.5q0 142 -174 142h-45z" />
    <glyph glyph-name="C" unicode="C" horiz-adv-x="748" 
d="M653 0h-18q-12 8 -29 8q-4 0 -75.5 -12t-120.5 -12q-86 0 -151 25.5t-100.5 67.5t-52.5 89.5t-17 99.5q0 61 26.5 124t78 119.5t142 92.5t205.5 36q131 0 235 -36l-42 -166h-26q2 16 2 25q0 78 -48.5 112.5t-126.5 34.5q-141 0 -237.5 -102t-96.5 -251q0 -114 61 -176.5
t158 -62.5q151 0 261 157h27z" />
    <glyph glyph-name="D" unicode="D" horiz-adv-x="784" 
d="M15 0l5 27q64 0 80.5 17.5t33.5 100.5l70 344q9 41 9 62q0 27 -20.5 36.5t-69.5 7.5l5 27h319q150 0 238 -75.5t88 -199.5q0 -40 -10.5 -82.5t-40 -91t-74 -86t-119.5 -62.5t-170 -25h-344zM326 590l-84 -409q-14 -70 -14 -94q0 -31 24 -44t82 -13q86 0 152 30
t102.5 78.5t54.5 102.5t18 111q0 109 -70 173.5t-201 64.5h-64z" />
    <glyph glyph-name="E" unicode="E" horiz-adv-x="622" 
d="M555 0h-545l5 27q58 -1 75.5 19t33.5 96l71 349q7 33 7 55q0 52 -85 49l5 27h529l-29 -144h-28q0 2 0.5 6t0.5 8q0 98 -89 98h-190l-53 -260h154q48 0 76 16t41 54h28l-38 -188h-28q2 48 -15 67t-62 19h-163l-32 -156q-9 -42 -9 -61q0 -29 20.5 -39t81.5 -10
q101 0 158 23.5t97 86.5h29z" />
    <glyph glyph-name="F" unicode="F" horiz-adv-x="580" 
d="M254 299l-33 -161q-10 -51 -10 -64q0 -28 21.5 -38t68.5 -9l-5 -27h-281l5 27q47 0 65 16t30 73l76 372q9 45 9 62q0 25 -18 35t-59 10l5 27h487l-29 -143h-26q2 71 -16.5 91t-88.5 20h-142l-53 -259h134q59 0 82 13t42 59h27l-39 -189h-26q-2 54 -17 69.5t-68 15.5h-141
z" />
    <glyph glyph-name="G" unicode="G" horiz-adv-x="784" 
d="M726 40l-5 -26q-123 -30 -264 -30q-98 0 -171.5 25t-115 68t-61.5 92.5t-20 104.5q0 154 127 259t312 105q128 0 236 -43v-150h-23q-48 163 -218 163q-132 0 -227 -102.5t-95 -245.5q0 -116 69 -181t183 -65q86 0 120.5 34t34.5 104q0 44 -69 45l6 27h243l-6 -27
q-39 -3 -56 -20q-10 -10 -20 -52.5t-10 -61.5q0 -21 30 -23z" />
    <glyph glyph-name="H" unicode="H" horiz-adv-x="784" 
d="M270 343h343l34 162q5 23 5 38q0 52 -74 52l5 27h283l-6 -27q-55 0 -78.5 -21t-32.5 -61l-80 -395q-5 -22 -5 -38q0 -53 81 -53l-6 -27h-291l6 27q63 0 85.5 27.5t36.5 99.5l28 142h-342l-36 -178q-5 -28 -5 -38q0 -53 94 -53l-6 -27h-301l6 27q60 0 82 27t37 100l71 351
q4 19 4 38q0 52 -85 52l6 27h289l-6 -27q-48 0 -72.5 -20t-33.5 -62z" />
    <glyph glyph-name="I" unicode="I" horiz-adv-x="343" 
d="M133 595l6 27h271l-6 -27q-55 -1 -74.5 -23t-33.5 -91l-70 -343q-10 -51 -10 -64q0 -25 18 -36.5t67 -10.5l-6 -27h-278l6 27q51 0 69.5 19.5t34.5 98.5l69 341q8 38 8 58q0 26 -16.5 38t-54.5 13z" />
    <glyph glyph-name="J" unicode="J" horiz-adv-x="343" 
d="M124 595l5 27h274l-5 -27q-52 -1 -69 -20.5t-30 -97.5l-84 -479q-12 -71 -62.5 -125t-112.5 -79.5t-124 -25.5q-34 0 -70 9t-36 23q0 13 17 39.5t35 26.5q12 0 57 -22t82 -22q81 0 100 109l98 555q7 37 7 56q0 54 -82 53z" />
    <glyph glyph-name="K" unicode="K" horiz-adv-x="711" 
d="M710 0h-174l-238 307l-46 -31l-28 -140q-8 -38 -8 -57q0 -52 81 -52l-6 -27h-278l6 27q56 0 73.5 20.5t32.5 97.5l69 339q9 42 9 64q0 26 -16 36.5t-53 10.5l6 27h265l-6 -27q-45 0 -68.5 -23t-34.5 -78l-34 -170l281 191q29 20 39 30.5t10 22.5q0 27 -50 27l6 27h250
l-6 -27q-37 0 -83.5 -22t-137.5 -83l-190 -128l162 -208q64 -82 94.5 -104.5t78.5 -22.5z" />
    <glyph glyph-name="L" unicode="L" horiz-adv-x="585" 
d="M559 0h-551l6 27q57 0 75.5 18.5t34.5 97.5l70 341q10 50 10 65q0 27 -20 36.5t-64 9.5l6 27h281l-6 -27q-59 0 -75.5 -19t-32.5 -99l-70 -344q-7 -35 -7 -55q0 -26 20 -34t81 -8q84 0 126.5 8t71.5 29t66 70h26z" />
    <glyph glyph-name="M" unicode="M" horiz-adv-x="874" 
d="M354 0l-86 536h-2l-100 -373q-14 -51 -14 -75q0 -58 73 -61l-5 -27h-209l5 27q47 4 70.5 32.5t45.5 109.5l88 324q10 39 10 53q0 25 -19 36t-68 13l6 27h205l82 -504l328 504h185l-6 -27q-60 -1 -75.5 -18.5t-32.5 -99.5l-69 -339q-9 -46 -9 -65q0 -27 19 -36.5t63 -9.5
l-5 -27h-285l5 27q58 0 78.5 24t36.5 105l77 378l-2 2l-347 -536h-43z" />
    <glyph glyph-name="N" unicode="N" horiz-adv-x="775" 
d="M645 0h-46l-364 516l-72 -356q-7 -32 -7 -56q0 -25 10 -42t25.5 -24t27.5 -9t24 -2l-5 -27h-214l5 27q40 0 61 24.5t37 101.5l83 405q-16 22 -34 29.5t-54 7.5l5 27h154l354 -503l72 354q9 42 9 59q0 63 -85 63l5 27h213l-5 -27q-23 0 -40.5 -9.5t-27.5 -21.5
t-18.5 -33.5t-11.5 -35l-8 -36.5z" />
    <glyph glyph-name="O" unicode="O" horiz-adv-x="802" 
d="M482 638q139 0 224.5 -85.5t85.5 -210.5q0 -142 -109 -250t-283 -108q-137 0 -224 83t-87 215q0 66 27 129t76 114t124.5 82t165.5 31zM484 608q-72 0 -129.5 -36t-89.5 -92t-48 -116t-16 -117q0 -103 56 -168t145 -65q61 0 111 27t80 68t50.5 92t28.5 95.5t8 82.5
q0 90 -49.5 159.5t-146.5 69.5z" />
    <glyph glyph-name="P" unicode="P" horiz-adv-x="595" 
d="M300 0h-288l5 27q52 2 73.5 24.5t33.5 79.5l74 364q7 32 7 52q0 44 -72 48l5 27h264q99 0 159 -44t60 -126q0 -39 -15.5 -75.5t-45.5 -68t-82 -50.5t-117 -19q-38 0 -68 6l5 26q26 -2 36 -2q74 0 122.5 56t48.5 141q0 129 -129 129h-57l-96 -472q-6 -28 -6 -42
q0 -54 88 -54z" />
    <glyph glyph-name="Q" unicode="Q" horiz-adv-x="802" 
d="M494 -6q123 -109 218 -109q33 0 64 15l16 -21q-74 -53 -144 -53q-61 0 -149.5 42.5t-189.5 125.5q-102 27 -161 105.5t-59 180.5q0 143 109.5 250.5t283.5 107.5q143 0 226.5 -87.5t83.5 -208.5q0 -125 -84.5 -224t-213.5 -124zM484 608q-102 0 -176 -74
q-50 -50 -78.5 -131.5t-28.5 -155.5q0 -103 56 -168t145 -65q99 0 172 73q49 49 77.5 134t28.5 160q0 94 -51 160.5t-145 66.5z" />
    <glyph glyph-name="R" unicode="R" horiz-adv-x="721" 
d="M264 272l-27 -134q-9 -44 -9 -64q0 -29 19 -38t72 -9l-5 -27h-298l5 27q61 0 81.5 23t37.5 106l67 331q8 40 8 56q0 27 -18.5 39.5t-59.5 12.5l5 27h305q84 0 131 -44t47 -110q0 -69 -51.5 -119t-138.5 -66l54 -83q54 -82 88 -116q57 -57 144 -57v-27l-7 -1
q-36 -5 -70 -5q-101 0 -165 64q-28 28 -83.5 113t-68.5 101h-63zM271 304h35q90 0 148.5 44t58.5 125q0 56 -32.5 86.5t-96.5 30.5h-55z" />
    <glyph glyph-name="S" unicode="S" horiz-adv-x="558" 
d="M52 40l38 156h25q-6 -84 43 -133t130 -49q62 0 102 31t40 79q0 46 -46 92q-19 19 -85 69t-82 66q-55 55 -55 122q0 72 57.5 118.5t146.5 46.5q29 0 85 -9.5t59 -9.5q14 0 22 12h28l-21 -172h-26q-6 71 -44 110t-102 39q-52 0 -87 -26.5t-35 -66.5q0 -39 36 -75
q15 -15 90 -73t95 -78q32 -32 44.5 -60t12.5 -65q0 -80 -66.5 -130t-174.5 -50q-107 0 -230 56z" />
    <glyph glyph-name="T" unicode="T" horiz-adv-x="711" 
d="M403 587h-109q-60 0 -92.5 -25.5t-53.5 -83.5h-29l35 171h24q9 -27 92 -27h371q57 0 77 5t33 22h26l-35 -171h-26q3 62 -14.5 85.5t-69.5 23.5h-128l-91 -449q-10 -47 -10 -64q0 -28 21 -38t73 -9l-5 -27h-297l5 27q58 0 78 23t35 97z" />
    <glyph glyph-name="U" unicode="U" horiz-adv-x="748" 
d="M821 622l-5 -27q-45 -1 -65.5 -31t-35.5 -112l-42 -238q-40 -230 -292 -230q-122 0 -189 49.5t-67 140.5q0 32 12 93l45 219q8 41 8 57q0 28 -18.5 40.5t-59.5 11.5l5 27h274l-5 -27q-54 0 -71 -17.5t-31 -84.5l-43 -212q-16 -77 -16 -113q0 -64 49.5 -103t130.5 -39
q100 0 159 50t74 136l40 232q10 60 10 82q0 38 -18.5 53t-67.5 16l5 27h214z" />
    <glyph glyph-name="V" unicode="V" horiz-adv-x="721" 
d="M210 -16l14 535q1 43 -13.5 58.5t-58.5 17.5l5 27h264l-5 -27q-52 0 -71.5 -24t-20.5 -91l-10 -383l2 -2l328 407q27 33 27 54q0 39 -64 39l5 27h219l-5 -27q-66 -3 -135 -87l-429 -524h-52z" />
    <glyph glyph-name="W" unicode="W" horiz-adv-x="1036" 
d="M615 -16h-49l19 458l-2 2l-354 -460h-49l33 529q3 46 -12 63.5t-63 18.5l6 27h254l-6 -27q-46 -3 -62 -24t-20 -83l-23 -376l2 -2l297 387q2 57 -14 77.5t-65 20.5l6 27h261l-6 -27q-48 0 -64 -22t-18 -85l-16 -376l2 -2l246 334q59 79 59 109q0 42 -65 42l6 27h222
l-6 -27q-40 -2 -65 -20.5t-71 -79.5z" />
    <glyph glyph-name="X" unicode="X" horiz-adv-x="739" 
d="M4 0l5 27q37 1 64 15t70 55l224 215l-115 201q-32 56 -53.5 69t-80.5 13l5 27h296l-5 -27q-41 0 -55.5 -8t-14.5 -23q0 -19 15 -43l80 -138l127 123q36 36 36 55q0 34 -68 34l5 27h243l-5 -27q-46 0 -81.5 -20t-107.5 -90l-132 -129l163 -278q29 -49 91 -51l-5 -27h-271
l5 27q37 0 52 7.5t15 25.5q0 12 -14 36l-109 187l-153 -149q-42 -42 -42 -69q0 -36 70 -38l-5 -27h-249z" />
    <glyph glyph-name="Y" unicode="Y" horiz-adv-x="684" 
d="M306 256l-107 243q-25 57 -42.5 76t-48.5 20l6 27h232l-6 -27q-56 -2 -56 -34q0 -15 10 -35l103 -234l196 225q21 24 21 45q0 33 -59 33l6 27h197l-6 -27q-49 -4 -96 -58l-249 -281l-24 -118q-8 -40 -8 -56q0 -34 19.5 -45t76.5 -10l-6 -27h-306l6 27q56 -1 79.5 19.5
t35.5 80.5z" />
    <glyph glyph-name="Z" unicode="Z" horiz-adv-x="703" 
d="M620 0h-589v32l546 558h-201q-72 0 -114 -32t-71 -110h-27l40 174h512v-32l-546 -558h248q91 0 131.5 27t94.5 119h27z" />
    <glyph glyph-name="bracketleft" unicode="[" horiz-adv-x="333" 
d="M46 -210l176 865h210l-6 -27h-82q-30 0 -39 -9t-17 -45l-146 -717q0 -2 -0.5 -8.5t-0.5 -8.5q0 -13 13 -18t49 -5h58l-5 -27h-210z" />
    <glyph glyph-name="backslash" unicode="\" horiz-adv-x="477" 
d="M149 671l338 -687h-70l-339 687h71z" />
    <glyph glyph-name="bracketright" unicode="]" horiz-adv-x="333" 
d="M319 655l-176 -865h-210l6 27h82q29 0 39 9t17 45l145 717q2 8 2 17q0 13 -13 18t-50 5h-57l5 27h210z" />
    <glyph glyph-name="asciicircum" unicode="^" horiz-adv-x="570" 
d="M141 319l174 303h34l174 -303h-65l-126 216l-126 -216h-65z" />
    <glyph glyph-name="underscore" unicode="_" horiz-adv-x="500" 
d="M-6 -75h512v-50h-512v50z" />
    <glyph glyph-name="grave" unicode="`" horiz-adv-x="333" 
d="M339 464h-48l-131 190h92z" />
    <glyph glyph-name="a" unicode="a" horiz-adv-x="442" 
d="M420 93l11 -16q-88 -88 -129 -88q-30 0 -30 47q0 43 12 86l-2 2q-126 -135 -167 -135q-23 0 -41 30.5t-18 69.5q0 62 34.5 125.5t79.5 103.5q60 54 120.5 73t135.5 22l-63 -307q-4 -23 -4 -32q0 -18 11 -18q12 0 50 37zM292 163l37 183q-77 0 -122 -45q-29 -29 -45.5 -82
t-16.5 -104q0 -59 21 -59q24 0 126 107z" />
    <glyph glyph-name="b" unicode="b" horiz-adv-x="415" 
d="M240 597l-67 -326l2 -2q59 64 107 104t64 40q20 0 38.5 -40.5t18.5 -92.5q0 -121 -77 -206t-167 -85q-47 0 -74 26t-27 70q0 26 12 84l81 399q4 24 4 32q0 13 -9 13q-12 0 -57 -28l-11 19q26 18 81.5 42.5t72.5 24.5q15 0 15 -24q0 -18 -7 -50zM166 231l-23 -112
q-8 -38 -8 -52q0 -24 12.5 -39t32.5 -15q48 0 91 73.5t43 174.5q0 76 -24 76q-25 0 -124 -106z" />
    <glyph glyph-name="c" unicode="c" horiz-adv-x="316" 
d="M270 98l18 -15q-93 -94 -173 -94q-44 0 -70.5 28t-26.5 75q0 65 31.5 139t88 128t117.5 54q28 0 47.5 -15t19.5 -36q0 -16 -11 -27t-27 -11q-17 0 -43.5 21t-41.5 21q-13 0 -22 -9q-30 -30 -50 -115.5t-20 -137.5q0 -34 14.5 -54t38.5 -20q39 0 110 68z" />
    <glyph glyph-name="d" unicode="d" horiz-adv-x="442" 
d="M406 111l17 -15q-80 -107 -132 -107q-34 0 -34 37q0 20 20 111l-2 2q-107 -150 -170 -150q-26 0 -43 33.5t-17 82.5q0 62 24.5 121.5t60 99t73 63.5t65.5 24q31 0 59 -29l37 182q4 20 4.5 30.5t-1.5 14t-8 3.5q-14 0 -68 -38l-9 21q49 32 94.5 53t66.5 21q17 0 17 -21
q0 -19 -6 -47l-101 -495q-1 -6 -3 -16t-3.5 -16.5t-1.5 -9.5q0 -11 8 -11q5 0 22 17.5t31 38.5zM288 194l25 123q-24 61 -62 61q-21 0 -40 -19q-32 -32 -54.5 -102t-22.5 -135q0 -70 25 -70q12 0 49.5 40.5t79.5 101.5z" />
    <glyph glyph-name="e" unicode="e" horiz-adv-x="360" 
d="M328 81l12 -18q-41 -34 -88.5 -54t-88.5 -20q-52 0 -83.5 36t-31.5 96q0 113 75.5 202.5t169.5 89.5q40 0 63.5 -17.5t23.5 -46.5q0 -96 -234 -165q-9 -26 -9 -58q0 -43 21 -69.5t56 -26.5q42 0 114 51zM151 208q147 47 147 135q0 44 -29 44q-69 0 -118 -179z" />
    <glyph glyph-name="f" unicode="f" horiz-adv-x="268" 
d="M300 361h-84l-34 -223q-27 -179 -92 -274.5t-194 -95.5q-31 0 -51 13.5t-20 38.5q0 19 12.5 31t31.5 12q22 0 46.5 -27.5t50.5 -27.5q46 0 72 58t53 227l42 268h-68l5 25q44 7 71 16q27 132 87 200.5t148 68.5q80 0 80 -50q0 -18 -12 -29t-32 -11q-22 0 -48 26.5
t-48 26.5q-33 0 -52 -49t-40 -183h84z" />
    <glyph glyph-name="g" unicode="g" horiz-adv-x="397" 
d="M415 353l-57 6q21 -43 21 -83q0 -74 -53 -127q-27 -27 -70.5 -49.5t-71.5 -35.5t-28 -23q0 -13 29.5 -34t72.5 -48t62 -46q27 -27 27 -49q0 -44 -60 -70t-160 -26q-91 0 -145 21.5t-54 57.5q0 28 36 54.5t135 76.5q-10 13 -10 26q0 28 60 63q-42 15 -66 50q-25 36 -25 80
q0 79 74 147.5t159 68.5q21 0 49 -5h75v-55zM198 100q37 0 66 49t29 138q0 95 -48 95q-41 0 -71 -67t-30 -130q0 -39 14.5 -62t39.5 -23zM113 -39q-107 -47 -107 -103q0 -32 35 -50t96 -18q59 0 96.5 12.5t37.5 31.5q0 10 -12 22q-9 9 -56 39t-90 66z" />
    <glyph glyph-name="h" unicode="h" horiz-adv-x="477" 
d="M128 -11h-83l120 586q3 13 3 22q0 16 -10 16q-15 0 -55 -28l-11 19q35 23 86 45t66 22q16 0 16 -21q0 -16 -12 -75l-76 -369l2 -2q163 209 222 209q43 0 43 -57q0 -26 -9 -59l-59 -229q-6 -25 8 -25q16 0 77 76l17 -15q-90 -115 -148 -115q-19 0 -30 11t-11 30
q0 24 11 67l48 186q7 28 7 45t-11 17q-37 0 -177 -190z" />
    <glyph glyph-name="i" unicode="i" horiz-adv-x="252" 
d="M229 109l16 -18q-97 -102 -142 -102q-36 0 -36 40q0 19 5 41l49 239q5 25 -5 25q-11 0 -55 -45l-16 20q65 59 95 81.5t48 22.5q28 0 28 -30q0 -15 -4 -35l-54 -265q-3 -15 -3 -17q0 -12 9 -12q12 0 65 55zM225 631q16 0 26 -12.5t10 -32.5q0 -35 -17.5 -61.5t-40.5 -26.5
q-17 0 -28 13t-11 33q0 34 19 60.5t42 26.5z" />
    <glyph glyph-name="j" unicode="j" horiz-adv-x="235" 
d="M74 291l-16 20q91 102 143 102q29 0 29 -30q0 -15 -7 -50l-62 -301q-24 -113 -81 -188.5t-139 -75.5q-37 0 -63 17t-26 42q0 16 10.5 27t26.5 11q21 0 48.5 -30t50.5 -30q26 0 40 22.5t27 86.5l78 385q4 19 3.5 26.5t-8.5 7.5q-12 0 -54 -42zM234 631q16 0 25.5 -12.5
t9.5 -32.5q0 -35 -17.5 -61.5t-40.5 -26.5q-17 0 -27.5 13t-10.5 33q0 34 18.5 60.5t42.5 26.5z" />
    <glyph glyph-name="k" unicode="k" horiz-adv-x="477" 
d="M471 91l-103 -103q-44 9 -76 42.5t-64.5 86t-57.5 77.5l-39 -192q-1 -9 -5 -11t-16 -2h-44q-13 0 -16 5.5t0 21.5l116 565q7 32 -8 32q-9 0 -48 -23l-8 18q36 24 80 43.5t62 19.5q16 0 16 -21q0 -15 -6 -42l-73 -358l2 -2q168 165 215 165q25 0 45.5 -26t20.5 -57
q0 -57 -56 -97t-143 -39q17 -15 29 -32l22 -28q27 -35 45.5 -50.5t43.5 -23.5l48 48zM380 318q0 33 -26 33q-23 0 -67 -34t-80 -70q-15 -15 -33 -37q101 -5 153.5 27t52.5 81z" />
    <glyph glyph-name="l" unicode="l" horiz-adv-x="252" 
d="M210 93l16 -16q-88 -88 -134 -88q-19 0 -30.5 13t-11.5 35q0 24 8 67l95 466l5 27q0 15 -10 15q-13 0 -58 -28l-11 19q51 29 71 38q65 30 83 30q15 0 16 -23q0 -9 -8 -45l-106 -532q-7 -33 4 -33q13 0 71 55z" />
    <glyph glyph-name="m" unicode="m" horiz-adv-x="711" 
d="M667 109l19 -10q-47 -61 -76 -85.5t-56 -24.5q-18 0 -29.5 12.5t-11.5 32.5q0 6 5 36l47 234q6 33 -7 33q-8 0 -31 -23q-67 -67 -102 -127t-51 -135l-10 -46q-4 -17 -25 -17h-37q-20 0 -20 16q0 5 4 23l56 276q6 33 -7 33q-10 0 -25 -15q-130 -130 -151 -236l-17 -82
q-2 -10 -6.5 -12.5t-16.5 -2.5h-39q-14 0 -17 6.5t1 32.5l54 267q7 32 -5 32q-14 0 -43 -32l-13 16q90 102 131 102q29 0 29 -32q0 -7 -3 -22l-31 -151l2 -2q149 207 217 207q34 0 34 -41q0 -13 -4 -35l-27 -129l2 -2q154 207 217 207q16 0 25.5 -11t9.5 -29q0 -17 -5 -43
l-52 -252q-4 -25 7 -25q13 0 58 56z" />
    <glyph glyph-name="n" unicode="n" horiz-adv-x="486" 
d="M139 -11h-83l64 313q5 22 -5 22q-14 0 -54 -55l-18 14q98 130 147 130q26 0 26 -29q0 -21 -4 -40l-29 -138l2 -2q160 209 223 209q20 0 31 -15t11 -41q0 -24 -9 -59l-55 -220q-9 -35 5 -35q10 0 33.5 24.5t42.5 51.5l18 -15q-91 -115 -150 -115q-40 0 -40 43q0 13 7 41
l47 190q12 48 12 66q0 16 -11 16q-37 0 -177 -190z" />
    <glyph glyph-name="o" unicode="o" horiz-adv-x="415" 
d="M295 413q43 0 71.5 -42t28.5 -107q0 -60 -28 -114t-68 -87.5t-81 -53.5t-71 -20q-45 0 -74 41.5t-29 105.5q0 61 27.5 115t67.5 88t82 54t74 20zM246 374q-26 0 -47 -21q-30 -30 -48 -91t-18 -111q0 -55 19 -89t45 -34q22 0 43 21q30 30 48 86.5t18 114.5t-18.5 91
t-41.5 33z" />
    <glyph glyph-name="p" unicode="p" horiz-adv-x="459" 
d="M186 -232h-256l5 27q54 0 73 18t34 89l82 405q6 28 -5 28q-13 0 -64 -60l-19 15q45 55 87.5 89t66.5 34q29 0 29 -37q0 -11 -4 -31l-17 -82l2 -2q46 65 95.5 108.5t76.5 43.5q29 0 49.5 -42.5t20.5 -100.5q0 -104 -74 -192.5t-175 -88.5q-25 0 -49 5l-24 -114
q-6 -32 -6 -44q0 -23 16.5 -32t60.5 -9zM187 208l-33 -162q32 -27 62 -27q56 0 96.5 71.5t40.5 171.5q0 84 -30 84q-28 0 -136 -138z" />
    <glyph glyph-name="q" unicode="q" horiz-adv-x="423" 
d="M372 -232h-254l5 27q54 2 72 14t26 52l53 256l-2 2q-135 -130 -172 -130q-24 0 -44 34.5t-20 75.5q0 46 27 100.5t72.5 102t113 79.5t140.5 32q17 0 21.5 -4t1.5 -18l-106 -521q-4 -19 -4 -36q0 -23 15 -30.5t60 -8.5zM282 161l38 186q-49 -1 -80 -12.5t-58 -38.5
q-22 -22 -39.5 -83.5t-17.5 -102.5q0 -59 28 -59q26 0 129 110z" />
    <glyph glyph-name="r" unicode="r" horiz-adv-x="306" 
d="M55 296l-17 17q88 100 130 100q30 0 30 -36q0 -45 -21 -126l-31 -117h10l42 111q63 168 128 168q33 0 33 -39q0 -22 -11 -38t-27 -16q-6 0 -17.5 3t-16.5 3q-39 0 -78 -109l-62 -171q-5 -15 -8 -28.5t-4 -18.5t-4.5 -7.5t-11.5 -2.5h-51q-12 0 -15 6.5t1 23.5l60 294
q5 26 -8 26q-12 0 -51 -43z" />
    <glyph glyph-name="s" unicode="s" horiz-adv-x="351" 
d="M100 273q0 42 51 91t107 49q35 0 57.5 -19t22.5 -49q0 -21 -12 -35t-31 -14q-16 0 -27 12t-15 27t-13 27t-23 12q-16 0 -30.5 -15.5t-14.5 -32.5q0 -19 18 -45t39.5 -48.5t39.5 -54t18 -60.5q0 -56 -48.5 -92.5t-121.5 -36.5q-104 0 -104 56q0 17 12 28.5t30 11.5
q26 0 66 -29t62 -29q18 0 29 10.5t11 27.5q0 20 -19 48t-42.5 51.5t-42.5 54t-19 54.5z" />
    <glyph glyph-name="t" unicode="t" horiz-adv-x="261" 
d="M236 102l14 -17q-108 -96 -158 -96q-42 0 -42 46q0 15 7 50l56 276h-52l5 24q91 32 158 150h26q-29 -66 -46 -133h81l-8 -41h-81l-56 -276q-5 -27 -5 -33q0 -15 11 -15q19 0 90 65z" />
    <glyph glyph-name="u" unicode="u" horiz-adv-x="486" 
d="M457 119l16 -16q-101 -114 -140 -114q-28 0 -28 40q0 30 11 84l24 112l-2 2q-59 -91 -136 -164.5t-102 -73.5q-29 0 -29 48q0 27 5 52l45 221q6 24 -5 24q-12 0 -47 -45l-17 14q87 110 132 110q14 0 22 -10.5t8 -27.5q0 -21 -7 -53l-45 -219q-7 -35 6 -35q12 0 34 22
q48 48 92.5 109t58.5 96l21 95q3 15 6.5 19t14.5 4h42q15 0 18.5 -5t1.5 -18l-61 -301q-5 -23 3 -23q14 0 58 53z" />
    <glyph glyph-name="v" unicode="v" horiz-adv-x="451" 
d="M66 291l-14 16q93 106 136 106q32 0 32 -39q0 -16 -3 -31l-42 -264q-4 -28 12 -28q15 0 43.5 24.5t54.5 60.5q31 43 51 92.5t20 83.5q0 19 -14.5 30.5t-14.5 19.5q0 19 21 35t46 16q26 0 40.5 -15t14.5 -41q0 -45 -38.5 -110.5t-111.5 -138.5q-49 -49 -100 -84t-73 -35
q-35 0 -35 56q0 26 8 71l31 191q5 34 -5 34q-17 0 -59 -50z" />
    <glyph glyph-name="w" unicode="w" horiz-adv-x="640" 
d="M53 284l-15 12q95 117 136 117q31 0 31 -40q0 -18 -4 -39l-39 -244q-6 -34 11 -34t73 63q14 16 47.5 59t40.5 55l24 156q2 15 6.5 19.5t17.5 4.5h39q13 0 16.5 -6.5t1.5 -21.5l-46 -295q-6 -36 11 -36q14 0 40.5 25t52.5 63q66 95 66 165q0 22 -14 34t-14 21
q0 20 20 35.5t46 15.5q52 0 52 -60q0 -94 -153 -247q-117 -117 -164 -117q-33 0 -33 50q0 44 6 74l17 79l-2 2q-33 -56 -103.5 -130.5t-105.5 -74.5q-36 0 -36 66q0 11 5 58l30 187q3 20 2 26.5t-8 6.5q-15 0 -55 -49z" />
    <glyph glyph-name="x" unicode="x" horiz-adv-x="544" 
d="M471 121l19 -9q-24 -55 -56.5 -89t-60.5 -34q-21 0 -36 19.5t-37 74.5l-29 73q-66 -91 -107 -129t-73 -38q-21 0 -35 13t-14 34q0 29 32 99h23q0 -7 -1 -12q2 -57 37 -57q22 0 48 23t81 91l-53 127q-11 27 -19.5 37.5t-19.5 10.5q-14 0 -28 -15t-37 -55l-22 10
q64 118 127 118q25 0 41.5 -17t34.5 -62l33 -83q64 94 99.5 128t69.5 34q23 0 37.5 -14.5t14.5 -37.5q0 -26 -13 -66h-26q1 2 1 5.5t1 6.5q-1 19 -12 31t-28 12q-28 0 -66 -39q-28 -28 -68 -82l56 -140q13 -35 32 -35q11 0 23 14.5t31 52.5z" />
    <glyph glyph-name="y" unicode="y" horiz-adv-x="451" 
d="M237 -232h-233l5 27q51 0 67 16q20 20 58.5 112t38.5 148q0 67 -17 172.5t-40 105.5q-21 0 -59 -62l-19 14q74 112 119 112q34 0 57 -64.5t31 -142t8 -158.5h2q36 65 63.5 126t38.5 94t11 42q0 6 -13 18.5t-13 31.5q0 23 15.5 38t39.5 15q23 0 37.5 -14.5t14.5 -37.5
q0 -46 -61 -139l-47 -71q-78 -119 -107 -192l-49 -124q-10 -25 1.5 -32.5t55.5 -7.5z" />
    <glyph glyph-name="z" unicode="z" horiz-adv-x="480" 
d="M421 102l22 -14q-68 -99 -127 -99q-32 0 -95 31l-40 21q-31 17 -59 17q-39 0 -40 -34l-1 -15q0 -20 -21 -20q-10 0 -17 7t-7 18q0 37 60 94q32 32 87 66q22 14 98 54q110 58 154 117l-2 2q-63 -42 -116 -42q-38 0 -95 29q-36 18 -53 18q-18 0 -31.5 -9.5t-32.5 -35.5
l-21 13q32 49 64 71t71 22q33 0 86 -28q58 -31 89 -31q33 0 48 36q9 23 24 23q19 0 19 -19q0 -37 -55 -92q-60 -61 -171 -119q-72 -36 -112 -67q-19 -14 -46 -39l2 -2q47 31 93 31q32 0 107 -33q38 -17 56 -17q30 0 62 46z" />
    <glyph glyph-name="braceleft" unicode="{" horiz-adv-x="394" 
d="M138 216v-1q68 -18 109 -63.5t41 -96.5q0 -25 -11.5 -90t-11.5 -78q0 -32 29 -63t76 -37v-19q-80 3 -135 58t-55 120q0 13 12 78q11 51 11 78q0 40 -29 68t-76 35v22q47 7 76 35t29 68q0 23 -11.5 77.5t-11.5 78.5q0 65 55 120t135 58v-19q-47 -6 -76 -37t-29 -63
q0 -12 12 -78q11 -70 11 -90q0 -51 -41 -96.5t-109 -64.5z" />
    <glyph glyph-name="bar" unicode="|" horiz-adv-x="527" 
d="M269 671h67v-831h-67v831z" />
    <glyph glyph-name="braceright" unicode="}" horiz-adv-x="394" 
d="M309 216v1q-68 18 -109 63.5t-41 96.5q0 25 11.5 90t11.5 78q0 32 -29 63t-76 37v19q80 -3 135 -58t55 -120q0 -19 -11 -78q-12 -56 -12 -78q0 -40 29 -68t76 -35v-22q-47 -7 -76 -35t-29 -68q0 -23 11.5 -77.5t11.5 -78.5q0 -65 -55 -120t-135 -58v19q47 6 76 37t29 63
q0 8 -11 78q-12 66 -12 90q0 51 41 96.5t109 64.5z" />
    <glyph glyph-name="asciitilde" unicode="~" horiz-adv-x="667" 
d="M568 395h25q-2 -63 -33 -100t-81 -37q-37 0 -129 39q-88 38 -119 38q-62 0 -74 -76h-25q2 61 31 99t79 38q47 0 133 -39t119 -39q32 0 51 20t23 57z" />
    <glyph glyph-name="uni00A0" unicode="&#xa0;" horiz-adv-x="333" 
 />
    <glyph glyph-name="exclamdown" unicode="&#xa1;" horiz-adv-x="279" 
d="M151 229h27l-50 -423q-3 -25 -10.5 -31.5t-33.5 -6.5h-32q-22 0 -29.5 3.5t-7.5 14.5q0 6 6 27zM185 286q-20 0 -33.5 15.5t-13.5 38.5q0 30 18.5 51.5t43.5 21.5q21 0 34.5 -15t13.5 -39q0 -29 -19 -51t-44 -22z" />
    <glyph glyph-name="cent" unicode="&#xa2;" horiz-adv-x="316" 
d="M-7 -232l84 227q-59 23 -59 97q0 63 31 137t87 129t117 55l88 209h23l-87 -212q45 -14 45 -48q0 -16 -11 -27t-27 -11q-14 0 -36 15l-121 -296q13 -13 33 -13q39 0 110 68l18 -15q-51 -51 -91.5 -73t-91.5 -21l-90 -221h-22zM111 74l118 280q-16 12 -30 12t-25 -11
q-22 -22 -44.5 -108t-22.5 -147q0 -12 2 -26h2z" />
    <glyph glyph-name="sterling" unicode="&#xa3;" horiz-adv-x="721" 
d="M224 58h-137l6 32h142q144 387 260 503q78 78 162 78q47 0 77 -19t30 -50q0 -19 -11 -31t-28 -12q-19 0 -33.5 12t-22 26t-20.5 26t-30 12q-70 0 -146 -190l-43 -109q-57 -142 -114 -246h162l-6 -32h-174q-40 -71 -99 -146q21 4 45 4q44 0 85.5 -16t68 -35.5t59 -35.5
t61.5 -16q31 0 49.5 15t18.5 41q0 17 -12.5 46.5t-12.5 42.5q0 19 12 31t31 12q24 0 38.5 -20t14.5 -54q0 -60 -46 -109.5t-131 -49.5q-54 0 -100 17t-72 37t-62.5 37.5t-74.5 17.5q-47 -59 -76.5 -84t-51.5 -25q-15 0 -24 9t-9 23q0 34 38 63.5t100 42.5q39 52 76 152z" />
    <glyph glyph-name="currency" unicode="&#xa4;" horiz-adv-x="667" 
d="M499 507l62 63l51 -52l-62 -63q42 -62 42 -129q0 -68 -42 -130l62 -62l-51 -52l-62 62q-63 -42 -130 -42q-66 0 -130 42l-63 -62l-52 52l63 62q-42 62 -42 130q0 67 42 130l-63 62l52 52l63 -63q64 42 130 42t130 -42zM218 326q0 -62 44.5 -106.5t106.5 -44.5t106 44.5
t44 106.5t-44.5 106t-105.5 44q-62 0 -106.5 -44t-44.5 -106z" />
    <glyph glyph-name="yen" unicode="&#xa5;" horiz-adv-x="684" 
d="M419 315l-17 -85h256l-8 -32h-255l-12 -60q-8 -40 -8 -56q0 -34 19.5 -45t76.5 -10l-6 -27h-306l6 27q56 -1 79.5 19.5t35.5 80.5l14 71h-225l6 32h226l17 85h-228l6 32h208l-68 152q-25 57 -42.5 76t-48.5 20l6 27h232l-6 -27q-56 -2 -56 -34q0 -15 10 -35l78 -174
l144 165q21 24 21 45q0 33 -59 33l6 27h197l-6 -27q-49 -4 -96 -58l-169 -190h232l-8 -32h-252z" />
    <glyph glyph-name="brokenbar" unicode="&#xa6;" horiz-adv-x="527" 
d="M277 195h67v-355h-67v355zM277 671h67v-355h-67v355z" />
    <glyph glyph-name="section" unicode="&#xa7;" horiz-adv-x="451" 
d="M281 480q0 -62 49.5 -184t49.5 -183q0 -120 -95.5 -226t-195.5 -106q-46 0 -88.5 17.5t-42.5 49.5q0 16 11 27t26 11t33 -14.5t39.5 -29t46.5 -14.5q34 0 64 29t30 76q0 64 -50 187.5t-50 185.5q0 66 40 141.5t111.5 131t148.5 55.5q50 0 87 -19.5t37 -46.5
q0 -15 -11 -26.5t-25 -11.5q-18 0 -55.5 29t-64.5 29q-40 0 -67.5 -31.5t-27.5 -76.5zM244 513h-2q-83 -92 -83 -190q0 -53 47.5 -170t47.5 -183q0 -42 -10 -65l2 -2q39 25 62.5 81.5t23.5 106.5q0 60 -48.5 174t-48.5 179q0 32 9 69z" />
    <glyph glyph-name="dieresis" unicode="&#xa8;" horiz-adv-x="333" 
d="M183 598q19 0 33 -14t14 -33t-14 -33t-33 -14t-33 14t-14 33t14 33t33 14zM360 598q20 0 33.5 -14t13.5 -33t-13.5 -33t-33.5 -14t-33.5 14t-13.5 33t13.5 33t33.5 14z" />
    <glyph glyph-name="copyright" unicode="&#xa9;" horiz-adv-x="747" 
d="M582 553l10 -137h-19q-35 116 -148 116q-72 0 -114.5 -51.5t-42.5 -138.5q0 -104 45 -153t117 -49q95 0 152 79l19 -9q-68 -99 -188 -99q-96 0 -161 62t-65 154q0 96 70 161t173 65q36 0 70 -11t40 -11q16 0 23 22h19zM412 -16q-143 0 -244.5 101t-101.5 243
q0 143 101.5 244.5t244.5 101.5t244.5 -101.5t101.5 -244.5q0 -142 -101.5 -243t-244.5 -101zM412 14q131 0 223.5 92t92.5 222q0 131 -92.5 223.5t-223.5 92.5t-223.5 -92.5t-92.5 -223.5q0 -130 92.5 -222t223.5 -92z" />
    <glyph glyph-name="ordfeminine" unicode="&#xaa;" horiz-adv-x="279" 
d="M332 453l11 -16q-59 -55 -87 -55q-24 0 -24 31q0 18 5 38l-2 2q-72 -71 -100 -71q-16 0 -29 19t-13 43q0 68 72 133.5t178 60.5l-44 -185q-6 -24 3 -24q6 0 30 24zM244 487l21 106q-47 -5 -68 -26q-15 -15 -26 -45t-11 -56q0 -37 12 -37q4 0 22 15z" />
    <glyph glyph-name="guillemotleft" unicode="&#xab;" horiz-adv-x="424" 
d="M158 37l-120 184l202 181h36l-144 -181l63 -184h-37zM309 60l-74 161l140 162h36l-81 -162l15 -161h-36z" />
    <glyph glyph-name="logicalnot" unicode="&#xac;" horiz-adv-x="667" 
d="M138 416h463v-266h-67v199h-396v67z" />
    <glyph glyph-name="uni00AD" unicode="&#xad;" horiz-adv-x="333" 
d="M53 163l16 78h248l-16 -78h-248z" />
    <glyph glyph-name="registered" unicode="&#xae;" horiz-adv-x="747" 
d="M263 179v304q0 21 -9.5 31.5t-35.5 10.5v18h188q66 0 106 -30t40 -80q0 -81 -109 -108l102 -146q16 -24 28.5 -32.5t30.5 -10.5v-16h-90l-144 198h-36v-144q0 -21 12.5 -29.5t44.5 -8.5v-16h-179v16q51 0 51 43zM334 339h19q51 0 85.5 22t34.5 67q0 40 -28 66.5t-71 26.5
q-16 0 -40 -7v-175zM756 328q0 -142 -101.5 -243t-244.5 -101t-244.5 101t-101.5 243q0 143 101.5 244.5t244.5 101.5t244.5 -101.5t101.5 -244.5zM726 328q0 131 -92.5 223.5t-223.5 92.5t-223.5 -92.5t-92.5 -223.5q0 -130 92.5 -222t223.5 -92t223.5 92t92.5 222z" />
    <glyph glyph-name="macron" unicode="&#xaf;" horiz-adv-x="333" 
d="M141 513l16 80h224l-16 -80h-224z" />
    <glyph glyph-name="degree" unicode="&#xb0;" horiz-adv-x="400" 
d="M248 638q57 0 97.5 -40.5t40.5 -97.5t-40.5 -97.5t-97.5 -40.5t-97.5 40.5t-40.5 97.5t40.5 97.5t97.5 40.5zM248 593q-38 0 -65.5 -27.5t-27.5 -65.5t27.5 -65.5t65.5 -27.5t65.5 27.5t27.5 65.5t-27.5 65.5t-65.5 27.5z" />
    <glyph glyph-name="plusminus" unicode="&#xb1;" horiz-adv-x="667" 
d="M138 387h198v198h67v-198h198v-67h-198v-198h-67v198h-198v67zM138 46h463v-67h-463v67z" />
    <glyph glyph-name="twosuperior" unicode="&#xb2;" 
d="M307 410h-220v17q114 97 164 153q40 46 40 85q0 36 -45 36q-55 0 -75 -51h-28q11 35 32 55q38 36 91 36q40 0 67 -22.5t27 -53.5q0 -28 -31 -65q-41 -43 -168 -140h110q13 0 17 4.5t11 24.5h27z" />
    <glyph glyph-name="threesuperior" unicode="&#xb3;" 
d="M167 570l5 24q101 50 101 88q0 12 -7.5 22t-22.5 10q-24 0 -62 -36l-16 12q44 51 101 51q34 0 53 -15t19 -37q0 -21 -19 -36.5t-61 -34.5q62 -10 62 -63q0 -57 -61 -105.5t-120 -48.5q-19 0 -37.5 5.5t-18.5 18.5q0 11 8.5 19t20.5 8q6 0 32 -14q18 -9 34 -9
q27 0 50 36.5t23 75.5q0 20 -11 32t-27 12q-13 0 -46 -15z" />
    <glyph glyph-name="acute" unicode="&#xb4;" horiz-adv-x="333" 
d="M197 464l87 190h92l-131 -190h-48z" />
    <glyph glyph-name="mu" unicode="&#xb5;" horiz-adv-x="500" 
d="M164 413h83l-74 -269q-10 -35 -10 -59q0 -19 11 -31.5t28 -12.5q31 0 59 28q54 54 85 168l48 176h83l-82 -298q-8 -27 -8 -48q0 -14 7 -22.5t18 -8.5q26 0 55 64h17q-13 -49 -44 -80t-70 -31q-37 0 -53 30t-8 79l-2 2q-33 -55 -72 -83t-74 -28q-47 0 -70 45
q-22 -62 -22 -121q0 -120 -54 -120q-15 0 -25.5 12t-10.5 29q0 14 15.5 49l42 98.5t44.5 129.5z" />
    <glyph glyph-name="paragraph" unicode="&#xb6;" horiz-adv-x="540" 
d="M487 595v-827h-36v827h-91v-827h-36v485q-119 0 -176.5 49.5t-57.5 135.5t58.5 135t161.5 49h241v-27h-64z" />
    <glyph glyph-name="periodcentered" unicode="&#xb7;" horiz-adv-x="289" 
d="M182 367q30 0 48.5 -16t18.5 -42t-18 -41t-49 -15q-30 0 -48 15.5t-18 40.5q0 26 18.5 42t47.5 16z" />
    <glyph glyph-name="cedilla" unicode="&#xb8;" horiz-adv-x="333" 
d="M51 -205l4 20q102 -2 102 51q0 35 -49 38l49 96h21l-20 -37q62 -15 62 -73q0 -46 -39 -71.5t-107 -25.5q-14 0 -23 2z" />
    <glyph glyph-name="onesuperior" unicode="&#xb9;" 
d="M292 410h-164l6 17q32 1 41 6.5t15 34.5l48 203q-49 -29 -96 -46l5 25q99 41 138 90h36l-61 -260q-6 -28 -6 -32q0 -12 8.5 -15t34.5 -6z" />
    <glyph glyph-name="ordmasculine" unicode="&#xba;" horiz-adv-x="261" 
d="M261 638q32 0 51.5 -25.5t19.5 -65.5q0 -69 -59.5 -117t-104.5 -48q-32 0 -52 25t-20 65q0 67 56 116.5t109 49.5zM229 610q-24 0 -44.5 -40t-20.5 -88q0 -32 10 -52t26 -20q24 0 44 40t20 89q0 31 -10 51t-25 20z" />
    <glyph glyph-name="guillemotright" unicode="&#xbb;" horiz-adv-x="424" 
d="M300 402l120 -184l-201 -181h-37l144 181l-63 184h37zM149 379l74 -161l-139 -162h-37l81 162l-15 161h36z" />
    <glyph glyph-name="onequarter" unicode="&#xbc;" horiz-adv-x="766" 
d="M542 -8l20 96h-122v42l203 201h30l-41 -201h58l-9 -42h-58l-20 -96h-61zM571 130l23 112l-2 2l-114 -114h93zM77 -40l574 678h60l-569 -678h-65zM261 306h-163l4 19q31 -1 41.5 6.5t16.5 34.5l47 202q-51 -30 -96 -45l5 24q97 40 138 91h36l-64 -272q-6 -25 0.5 -32.5
t38.5 -8.5z" />
    <glyph glyph-name="onehalf" unicode="&#xbd;" horiz-adv-x="766" 
d="M670 0h-222l4 18l20 18q110 99 146 142t36 79q0 18 -12.5 29.5t-32.5 11.5q-49 0 -76 -58h-27q13 43 46 68t77 25q40 0 67 -22.5t27 -54.5q0 -33 -38.5 -72t-160.5 -131v-2h110q14 0 19.5 5.5t7.5 21.5h25zM77 -40l574 678h60l-569 -678h-65zM261 306h-163l4 19
q31 -1 41.5 6.5t16.5 34.5l47 202q-51 -30 -96 -45l5 24q97 40 138 91h36l-64 -272q-6 -25 0.5 -32.5t38.5 -8.5z" />
    <glyph glyph-name="threequarters" unicode="&#xbe;" horiz-adv-x="766" 
d="M160 466l5 24q102 52 102 88q0 13 -8.5 21t-21.5 8q-26 0 -63 -34l-14 13q43 52 100 52q31 0 51.5 -14.5t20.5 -37.5q0 -20 -17 -35.5t-63 -36.5v-2q63 -7 63 -61t-59 -103.5t-123 -49.5q-24 0 -39.5 7.5t-15.5 19.5q0 10 8.5 18t19.5 8q8 0 29 -11.5t37 -11.5
q26 0 49.5 35t23.5 73q0 20 -10.5 32t-27.5 12q-15 0 -47 -14zM87 -40l574 678h60l-569 -678h-65zM552 -8l20 96h-122v42l203 201h30l-41 -201h58l-9 -42h-58l-20 -96h-61zM581 130l23 112l-2 2l-114 -114h93z" />
    <glyph glyph-name="questiondown" unicode="&#xbf;" horiz-adv-x="324" 
d="M232 230h28q-4 -120 -57 -173q-18 -18 -64.5 -41t-63.5 -40q-20 -20 -20 -48q0 -27 20.5 -44t52.5 -17q26 0 61 9t43 9q17 0 28.5 -14t11.5 -36q0 -28 -30.5 -47.5t-85.5 -19.5q-63 0 -101 47t-38 124q0 93 52 145q14 14 67 42.5t64 39.5q20 20 32 64zM264 286
q-20 0 -33.5 15.5t-13.5 38.5q0 30 18.5 51.5t43.5 21.5q21 0 34.5 -15t13.5 -39q0 -29 -19 -51t-44 -22z" />
    <glyph glyph-name="Agrave" unicode="&#xc0;" horiz-adv-x="721" 
d="M5 0l5 27q39 0 69 20.5t67 70.5l380 520h87v-541q0 -43 16.5 -56.5t70.5 -13.5l-5 -27h-291l5 27q64 0 83.5 21.5t19.5 84.5v121h-226l-81 -111q-43 -59 -43 -77q0 -22 19.5 -30.5t60.5 -8.5l-5 -27h-232zM321 301h191v261h-2zM623 674h-48l-131 190h92z" />
    <glyph glyph-name="Aacute" unicode="&#xc1;" horiz-adv-x="721" 
d="M5 0l5 27q39 0 69 20.5t67 70.5l380 520h87v-541q0 -43 16.5 -56.5t70.5 -13.5l-5 -27h-291l5 27q64 0 83.5 21.5t19.5 84.5v121h-226l-81 -111q-43 -59 -43 -77q0 -22 19.5 -30.5t60.5 -8.5l-5 -27h-232zM321 301h191v261h-2zM475 674l87 190h92l-131 -190h-48z" />
    <glyph glyph-name="Acircumflex" unicode="&#xc2;" horiz-adv-x="721" 
d="M5 0l5 27q39 0 69 20.5t67 70.5l380 520h87v-541q0 -43 16.5 -56.5t70.5 -13.5l-5 -27h-291l5 27q64 0 83.5 21.5t19.5 84.5v121h-226l-81 -111q-43 -59 -43 -77q0 -22 19.5 -30.5t60.5 -8.5l-5 -27h-232zM321 301h191v261h-2zM401 674l151 190h94l18 -190h-49l-34 109
l-133 -109h-47z" />
    <glyph glyph-name="Atilde" unicode="&#xc3;" horiz-adv-x="721" 
d="M5 0l5 27q39 0 69 20.5t67 70.5l380 520h87v-541q0 -43 16.5 -56.5t70.5 -13.5l-5 -27h-291l5 27q64 0 83.5 21.5t19.5 84.5v121h-226l-81 -111q-43 -59 -43 -77q0 -22 19.5 -30.5t60.5 -8.5l-5 -27h-232zM321 301h191v261h-2zM426 700h-40q0 54 24.5 88t71.5 34
q26 0 74 -24t70 -24q39 0 45 50h38q0 -61 -25.5 -91.5t-68.5 -30.5q-26 0 -74 24t-71 24q-38 0 -44 -50z" />
    <glyph glyph-name="Adieresis" unicode="&#xc4;" horiz-adv-x="721" 
d="M5 0l5 27q39 0 69 20.5t67 70.5l380 520h87v-541q0 -43 16.5 -56.5t70.5 -13.5l-5 -27h-291l5 27q64 0 83.5 21.5t19.5 84.5v121h-226l-81 -111q-43 -59 -43 -77q0 -22 19.5 -30.5t60.5 -8.5l-5 -27h-232zM321 301h191v261h-2zM461 808q19 0 33 -14t14 -33t-14 -33
t-33 -14t-33 14t-14 33t14 33t33 14zM638 808q20 0 33.5 -14t13.5 -33t-13.5 -33t-33.5 -14t-33.5 14t-13.5 33t13.5 33t33.5 14z" />
    <glyph glyph-name="Aring" unicode="&#xc5;" horiz-adv-x="721" 
d="M5 0l5 27q39 0 69 20.5t67 70.5l380 520h87v-541q0 -43 16.5 -56.5t70.5 -13.5l-5 -27h-291l5 27q64 0 83.5 21.5t19.5 84.5v121h-226l-81 -111q-43 -59 -43 -77q0 -22 19.5 -30.5t60.5 -8.5l-5 -27h-232zM321 301h191v261h-2zM571 856q39 0 66.5 -27.5t27.5 -66.5
t-27.5 -66.5t-66.5 -27.5t-66.5 27.5t-27.5 66.5t27.5 66.5t66.5 27.5zM571 826q-26 0 -45 -19t-19 -45t19 -45t45 -19t45 19t19 45t-19 45t-45 19z" />
    <glyph glyph-name="AE" unicode="&#xc6;" horiz-adv-x="928" 
d="M-36 0l6 27q37 -1 70 22.5t87 92.5l323 413q11 17 11 21q0 22 -71 19l6 27h555l-30 -144h-27q1 64 -21 88t-81 24h-177l-53 -260h155q93 0 116 70h28l-38 -188h-28q1 53 -18 69.5t-83 16.5h-138l-32 -156q-10 -50 -10 -62q0 -30 22.5 -39t94.5 -9q93 0 148 25t92 85h30
l-46 -142h-547l6 27q57 0 76.5 25t35.5 104l18 89h-196l-80 -103q-46 -59 -46 -74q0 -41 81 -41l-6 -27h-233zM271 277h179l62 302l-2 2z" />
    <glyph glyph-name="Ccedilla" unicode="&#xc7;" horiz-adv-x="748" 
d="M281 -205l4 20q102 -2 102 51q0 35 -49 38l41 81q-77 4 -135.5 31t-91 68t-48 87t-15.5 95q0 61 26.5 124t78 119.5t142 92.5t205.5 36q131 0 235 -36l-42 -166h-26q2 16 2 25q0 78 -48.5 112.5t-126.5 34.5q-141 0 -237.5 -102t-96.5 -251q0 -114 61 -176.5t158 -62.5
q151 0 261 157h27l-55 -173h-18q-12 8 -29 8q-3 0 -75 -12.5t-121 -11.5h-11l-11 -21q62 -15 62 -73q0 -46 -39 -71.5t-107 -25.5q-14 0 -23 2z" />
    <glyph glyph-name="Egrave" unicode="&#xc8;" horiz-adv-x="622" 
d="M555 0h-545l5 27q58 -1 75.5 19t33.5 96l71 349q7 33 7 55q0 52 -85 49l5 27h529l-29 -144h-28q0 2 0.5 6t0.5 8q0 98 -89 98h-190l-53 -260h154q48 0 76 16t41 54h28l-38 -188h-28q2 48 -15 67t-62 19h-163l-32 -156q-9 -42 -9 -61q0 -29 20.5 -39t81.5 -10
q101 0 158 23.5t97 86.5h29zM491 674h-48l-131 190h92z" />
    <glyph glyph-name="Eacute" unicode="&#xc9;" horiz-adv-x="622" 
d="M555 0h-545l5 27q58 -1 75.5 19t33.5 96l71 349q7 33 7 55q0 52 -85 49l5 27h529l-29 -144h-28q0 2 0.5 6t0.5 8q0 98 -89 98h-190l-53 -260h154q48 0 76 16t41 54h28l-38 -188h-28q2 48 -15 67t-62 19h-163l-32 -156q-9 -42 -9 -61q0 -29 20.5 -39t81.5 -10
q101 0 158 23.5t97 86.5h29zM349 674l87 190h92l-131 -190h-48z" />
    <glyph glyph-name="Ecircumflex" unicode="&#xca;" horiz-adv-x="622" 
d="M555 0h-545l5 27q58 -1 75.5 19t33.5 96l71 349q7 33 7 55q0 52 -85 49l5 27h529l-29 -144h-28q0 2 0.5 6t0.5 8q0 98 -89 98h-190l-53 -260h154q48 0 76 16t41 54h28l-38 -188h-28q2 48 -15 67t-62 19h-163l-32 -156q-9 -42 -9 -61q0 -29 20.5 -39t81.5 -10
q101 0 158 23.5t97 86.5h29zM269 674l151 190h94l18 -190h-49l-34 109l-133 -109h-47z" />
    <glyph glyph-name="Edieresis" unicode="&#xcb;" horiz-adv-x="622" 
d="M555 0h-545l5 27q58 -1 75.5 19t33.5 96l71 349q7 33 7 55q0 52 -85 49l5 27h529l-29 -144h-28q0 2 0.5 6t0.5 8q0 98 -89 98h-190l-53 -260h154q48 0 76 16t41 54h28l-38 -188h-28q2 48 -15 67t-62 19h-163l-32 -156q-9 -42 -9 -61q0 -29 20.5 -39t81.5 -10
q101 0 158 23.5t97 86.5h29zM335 808q19 0 33 -14t14 -33t-14 -33t-33 -14t-33 14t-14 33t14 33t33 14zM512 808q20 0 33.5 -14t13.5 -33t-13.5 -33t-33.5 -14t-33.5 14t-13.5 33t13.5 33t33.5 14z" />
    <glyph glyph-name="Igrave" unicode="&#xcc;" horiz-adv-x="343" 
d="M133 595l6 27h271l-6 -27q-55 -1 -74.5 -23t-33.5 -91l-70 -343q-10 -51 -10 -64q0 -25 18 -36.5t67 -10.5l-6 -27h-278l6 27q51 0 69.5 19.5t34.5 98.5l69 341q8 38 8 58q0 26 -16.5 38t-54.5 13zM357 674h-48l-131 190h92z" />
    <glyph glyph-name="Iacute" unicode="&#xcd;" horiz-adv-x="343" 
d="M133 595l6 27h271l-6 -27q-55 -1 -74.5 -23t-33.5 -91l-70 -343q-10 -51 -10 -64q0 -25 18 -36.5t67 -10.5l-6 -27h-278l6 27q51 0 69.5 19.5t34.5 98.5l69 341q8 38 8 58q0 26 -16.5 38t-54.5 13zM209 674l87 190h92l-131 -190h-48z" />
    <glyph glyph-name="Icircumflex" unicode="&#xce;" horiz-adv-x="343" 
d="M133 595l6 27h271l-6 -27q-55 -1 -74.5 -23t-33.5 -91l-70 -343q-10 -51 -10 -64q0 -25 18 -36.5t67 -10.5l-6 -27h-278l6 27q51 0 69.5 19.5t34.5 98.5l69 341q8 38 8 58q0 26 -16.5 38t-54.5 13zM129 674l151 190h94l18 -190h-49l-34 109l-133 -109h-47z" />
    <glyph glyph-name="Idieresis" unicode="&#xcf;" horiz-adv-x="343" 
d="M133 595l6 27h271l-6 -27q-55 -1 -74.5 -23t-33.5 -91l-70 -343q-10 -51 -10 -64q0 -25 18 -36.5t67 -10.5l-6 -27h-278l6 27q51 0 69.5 19.5t34.5 98.5l69 341q8 38 8 58q0 26 -16.5 38t-54.5 13zM195 808q19 0 33 -14t14 -33t-14 -33t-33 -14t-33 14t-14 33t14 33
t33 14zM372 808q20 0 33.5 -14t13.5 -33t-13.5 -33t-33.5 -14t-33.5 14t-13.5 33t13.5 33t33.5 14z" />
    <glyph glyph-name="Eth" unicode="&#xd0;" horiz-adv-x="784" 
d="M15 0l5 27q64 0 80.5 17.5t33.5 100.5l30 150h-95l5 32h98l32 162q9 49 9 62q0 27 -20.5 36.5t-69.5 7.5l5 27h318q150 0 238.5 -76t88.5 -199q0 -40 -11 -82.5t-40 -91t-74 -86t-120 -62.5t-170 -25h-343zM326 590l-53 -263h146l-5 -32h-149l-23 -114q-14 -70 -14 -94
q0 -31 23.5 -44t81.5 -13q86 0 152.5 30t103 78.5t54.5 102.5t18 111q0 109 -70.5 173.5t-201.5 64.5h-63z" />
    <glyph glyph-name="Ntilde" unicode="&#xd1;" horiz-adv-x="775" 
d="M645 0h-46l-364 516l-72 -356q-7 -32 -7 -56q0 -25 10 -42t25.5 -24t27.5 -9t24 -2l-5 -27h-214l5 27q40 0 61 24.5t37 101.5l83 405q-16 22 -34 29.5t-54 7.5l5 27h154l354 -503l72 354q9 42 9 59q0 63 -85 63l5 27h213l-5 -27q-23 0 -40.5 -9.5t-27.5 -21.5
t-18.5 -33.5t-11.5 -35l-8 -36.5zM370 700h-40q0 54 24.5 88t71.5 34q26 0 74 -24t70 -24q39 0 45 50h38q0 -61 -25.5 -91.5t-68.5 -30.5q-26 0 -74 24t-71 24q-38 0 -44 -50z" />
    <glyph glyph-name="Ograve" unicode="&#xd2;" horiz-adv-x="802" 
d="M482 638q139 0 224.5 -85.5t85.5 -210.5q0 -142 -109 -250t-283 -108q-137 0 -224 83t-87 215q0 66 27 129t76 114t124.5 82t165.5 31zM484 608q-72 0 -129.5 -36t-89.5 -92t-48 -116t-16 -117q0 -103 56 -168t145 -65q61 0 111 27t80 68t50.5 92t28.5 95.5t8 82.5
q0 90 -49.5 159.5t-146.5 69.5zM587 674h-48l-131 190h92z" />
    <glyph glyph-name="Oacute" unicode="&#xd3;" horiz-adv-x="802" 
d="M482 638q139 0 224.5 -85.5t85.5 -210.5q0 -142 -109 -250t-283 -108q-137 0 -224 83t-87 215q0 66 27 129t76 114t124.5 82t165.5 31zM484 608q-72 0 -129.5 -36t-89.5 -92t-48 -116t-16 -117q0 -103 56 -168t145 -65q61 0 111 27t80 68t50.5 92t28.5 95.5t8 82.5
q0 90 -49.5 159.5t-146.5 69.5zM439 674l87 190h92l-131 -190h-48z" />
    <glyph glyph-name="Ocircumflex" unicode="&#xd4;" horiz-adv-x="802" 
d="M482 638q139 0 224.5 -85.5t85.5 -210.5q0 -142 -109 -250t-283 -108q-137 0 -224 83t-87 215q0 66 27 129t76 114t124.5 82t165.5 31zM484 608q-72 0 -129.5 -36t-89.5 -92t-48 -116t-16 -117q0 -103 56 -168t145 -65q61 0 111 27t80 68t50.5 92t28.5 95.5t8 82.5
q0 90 -49.5 159.5t-146.5 69.5zM359 674l151 190h94l18 -190h-49l-34 109l-133 -109h-47z" />
    <glyph glyph-name="Otilde" unicode="&#xd5;" horiz-adv-x="802" 
d="M482 638q139 0 224.5 -85.5t85.5 -210.5q0 -142 -109 -250t-283 -108q-137 0 -224 83t-87 215q0 66 27 129t76 114t124.5 82t165.5 31zM484 608q-72 0 -129.5 -36t-89.5 -92t-48 -116t-16 -117q0 -103 56 -168t145 -65q61 0 111 27t80 68t50.5 92t28.5 95.5t8 82.5
q0 90 -49.5 159.5t-146.5 69.5zM384 700h-40q0 54 24.5 88t71.5 34q26 0 74 -24t70 -24q39 0 45 50h38q0 -61 -25.5 -91.5t-68.5 -30.5q-26 0 -74 24t-71 24q-38 0 -44 -50z" />
    <glyph glyph-name="Odieresis" unicode="&#xd6;" horiz-adv-x="802" 
d="M482 638q139 0 224.5 -85.5t85.5 -210.5q0 -142 -109 -250t-283 -108q-137 0 -224 83t-87 215q0 66 27 129t76 114t124.5 82t165.5 31zM484 608q-72 0 -129.5 -36t-89.5 -92t-48 -116t-16 -117q0 -103 56 -168t145 -65q61 0 111 27t80 68t50.5 92t28.5 95.5t8 82.5
q0 90 -49.5 159.5t-146.5 69.5zM425 808q19 0 33 -14t14 -33t-14 -33t-33 -14t-33 14t-14 33t14 33t33 14zM602 808q20 0 33.5 -14t13.5 -33t-13.5 -33t-33.5 -14t-33.5 14t-13.5 33t13.5 33t33.5 14z" />
    <glyph glyph-name="multiply" unicode="&#xd7;" horiz-adv-x="668" 
d="M209 493l166 -166l166 166l47 -47l-166 -166l167 -167l-47 -47l-166 166l-167 -167l-48 48l167 167l-166 166z" />
    <glyph glyph-name="Oslash" unicode="&#xd8;" horiz-adv-x="802" 
d="M658 491l-418 -390q59 -87 162 -87q61 0 111 27t80 68t50.5 92t28.5 95.5t8 82.5q0 62 -22 112zM482 638q127 0 209 -72l91 85l22 -24l-89 -83q77 -87 77 -202q0 -142 -109 -250t-283 -108q-64 0 -119.5 20t-90.5 50l-89 -83l-22 24l87 81q-77 92 -77 206q0 66 27 129
t76 114t124.5 82t165.5 31zM225 131l418 390q-22 39 -64 63t-95 24q-72 0 -129.5 -36t-89.5 -92t-48 -116t-16 -117q0 -73 24 -116z" />
    <glyph glyph-name="Ugrave" unicode="&#xd9;" horiz-adv-x="748" 
d="M821 622l-5 -27q-45 -1 -65.5 -31t-35.5 -112l-42 -238q-40 -230 -292 -230q-122 0 -189 49.5t-67 140.5q0 32 12 93l45 219q8 41 8 57q0 28 -18.5 40.5t-59.5 11.5l5 27h274l-5 -27q-54 0 -71 -17.5t-31 -84.5l-43 -212q-16 -77 -16 -113q0 -64 49.5 -103t130.5 -39
q100 0 159 50t74 136l40 232q10 60 10 82q0 38 -18.5 53t-67.5 16l5 27h214zM554 674h-48l-131 190h92z" />
    <glyph glyph-name="Uacute" unicode="&#xda;" horiz-adv-x="748" 
d="M821 622l-5 -27q-45 -1 -65.5 -31t-35.5 -112l-42 -238q-40 -230 -292 -230q-122 0 -189 49.5t-67 140.5q0 32 12 93l45 219q8 41 8 57q0 28 -18.5 40.5t-59.5 11.5l5 27h274l-5 -27q-54 0 -71 -17.5t-31 -84.5l-43 -212q-16 -77 -16 -113q0 -64 49.5 -103t130.5 -39
q100 0 159 50t74 136l40 232q10 60 10 82q0 38 -18.5 53t-67.5 16l5 27h214zM412 674l87 190h92l-131 -190h-48z" />
    <glyph glyph-name="Ucircumflex" unicode="&#xdb;" horiz-adv-x="748" 
d="M821 622l-5 -27q-45 -1 -65.5 -31t-35.5 -112l-42 -238q-40 -230 -292 -230q-122 0 -189 49.5t-67 140.5q0 32 12 93l45 219q8 41 8 57q0 28 -18.5 40.5t-59.5 11.5l5 27h274l-5 -27q-54 0 -71 -17.5t-31 -84.5l-43 -212q-16 -77 -16 -113q0 -64 49.5 -103t130.5 -39
q100 0 159 50t74 136l40 232q10 60 10 82q0 38 -18.5 53t-67.5 16l5 27h214zM332 674l151 190h94l18 -190h-49l-34 109l-133 -109h-47z" />
    <glyph glyph-name="Udieresis" unicode="&#xdc;" horiz-adv-x="748" 
d="M821 622l-5 -27q-45 -1 -65.5 -31t-35.5 -112l-42 -238q-40 -230 -292 -230q-122 0 -189 49.5t-67 140.5q0 32 12 93l45 219q8 41 8 57q0 28 -18.5 40.5t-59.5 11.5l5 27h274l-5 -27q-54 0 -71 -17.5t-31 -84.5l-43 -212q-16 -77 -16 -113q0 -64 49.5 -103t130.5 -39
q100 0 159 50t74 136l40 232q10 60 10 82q0 38 -18.5 53t-67.5 16l5 27h214zM398 808q20 0 33.5 -14t13.5 -33t-13.5 -33t-33.5 -14t-33.5 14t-13.5 33t13.5 33t33.5 14zM575 808q19 0 33 -14t14 -33t-14 -33t-33 -14t-33 14t-14 33t14 33t33 14z" />
    <glyph glyph-name="Yacute" unicode="&#xdd;" horiz-adv-x="684" 
d="M306 256l-107 243q-25 57 -42.5 76t-48.5 20l6 27h232l-6 -27q-56 -2 -56 -34q0 -15 10 -35l103 -234l196 225q21 24 21 45q0 33 -59 33l6 27h197l-6 -27q-49 -4 -96 -58l-249 -281l-24 -118q-8 -40 -8 -56q0 -34 19.5 -45t76.5 -10l-6 -27h-306l6 27q56 -1 79.5 19.5
t35.5 80.5zM380 674l87 190h92l-131 -190h-48z" />
    <glyph glyph-name="Thorn" unicode="&#xde;" horiz-adv-x="595" 
d="M297 501h45q88 -1 128.5 -12t68.5 -37q55 -50 53 -123q-3 -117 -114 -179q-58 -33 -159 -33q-53 0 -99 14l-6 -32q-13 -72 87 -72l-5 -27h-284l5 27q43 1 68 22q23 19 36 82l73 363q8 37 8 52q0 47 -73 48l6 28h268l-6 -28q-35 0 -61.5 -17.5t-32.5 -46.5zM291 469
l-64 -310q36 -12 77 -12q74 0 123 56t49 141q0 71 -41 103q-27 22 -98 22h-46z" />
    <glyph glyph-name="germandbls" unicode="&#xdf;" horiz-adv-x="469" 
d="M65 25l52 333q27 171 100 244q69 69 158 69q57 0 89 -34t32 -83q0 -57 -41 -98.5t-116 -61.5v-2q110 -41 110 -146q0 -98 -64 -177.5t-142 -79.5q-27 0 -43 11t-16 30q0 16 10 26t26 9q21 -1 40 -23t29 -22q29 0 50 59t21 138q0 62 -19.5 99t-64.5 61l5 22
q132 32 132 164q0 43 -17.5 64.5t-46.5 21.5q-36 0 -65 -29q-32 -32 -47.5 -81.5t-33.5 -166.5l-33 -210q-15 -93 -28 -146q-31 -122 -90 -181q-67 -67 -163 -67q-37 0 -57.5 13.5t-20.5 37.5q0 17 12 28t30 11q21 0 50 -26t50 -26q37 0 65 48t47 171z" />
    <glyph glyph-name="agrave" unicode="&#xe0;" horiz-adv-x="442" 
d="M420 93l11 -16q-88 -88 -129 -88q-30 0 -30 47q0 43 12 86l-2 2q-126 -135 -167 -135q-23 0 -41 30.5t-18 69.5q0 62 34.5 125.5t79.5 103.5q60 54 120.5 73t135.5 22l-63 -307q-4 -23 -4 -32q0 -18 11 -18q12 0 50 37zM292 163l37 183q-77 0 -122 -45q-29 -29 -45.5 -82
t-16.5 -104q0 -59 21 -59q24 0 126 107zM394 464h-48l-131 190h92z" />
    <glyph glyph-name="aacute" unicode="&#xe1;" horiz-adv-x="442" 
d="M420 93l11 -16q-88 -88 -129 -88q-30 0 -30 47q0 43 12 86l-2 2q-126 -135 -167 -135q-23 0 -41 30.5t-18 69.5q0 62 34.5 125.5t79.5 103.5q60 54 120.5 73t135.5 22l-63 -307q-4 -23 -4 -32q0 -18 11 -18q12 0 50 37zM292 163l37 183q-77 0 -122 -45q-29 -29 -45.5 -82
t-16.5 -104q0 -59 21 -59q24 0 126 107zM252 464l87 190h92l-131 -190h-48z" />
    <glyph glyph-name="acircumflex" unicode="&#xe2;" horiz-adv-x="442" 
d="M420 93l11 -16q-88 -88 -129 -88q-30 0 -30 47q0 43 12 86l-2 2q-126 -135 -167 -135q-23 0 -41 30.5t-18 69.5q0 62 34.5 125.5t79.5 103.5q60 54 120.5 73t135.5 22l-63 -307q-4 -23 -4 -32q0 -18 11 -18q12 0 50 37zM292 163l37 183q-77 0 -122 -45q-29 -29 -45.5 -82
t-16.5 -104q0 -59 21 -59q24 0 126 107zM172 464l151 190h94l18 -190h-49l-34 109l-133 -109h-47z" />
    <glyph glyph-name="atilde" unicode="&#xe3;" horiz-adv-x="442" 
d="M420 93l11 -16q-88 -88 -129 -88q-30 0 -30 47q0 43 12 86l-2 2q-126 -135 -167 -135q-23 0 -41 30.5t-18 69.5q0 62 34.5 125.5t79.5 103.5q60 54 120.5 73t135.5 22l-63 -307q-4 -23 -4 -32q0 -18 11 -18q12 0 50 37zM292 163l37 183q-77 0 -122 -45q-29 -29 -45.5 -82
t-16.5 -104q0 -59 21 -59q24 0 126 107zM197 490h-40q0 54 24.5 88t71.5 34q26 0 74 -24t70 -24q39 0 45 50h38q0 -61 -25.5 -91.5t-68.5 -30.5q-26 0 -74 24t-71 24q-38 0 -44 -50z" />
    <glyph glyph-name="adieresis" unicode="&#xe4;" horiz-adv-x="442" 
d="M420 93l11 -16q-88 -88 -129 -88q-30 0 -30 47q0 43 12 86l-2 2q-126 -135 -167 -135q-23 0 -41 30.5t-18 69.5q0 62 34.5 125.5t79.5 103.5q60 54 120.5 73t135.5 22l-63 -307q-4 -23 -4 -32q0 -18 11 -18q12 0 50 37zM292 163l37 183q-77 0 -122 -45q-29 -29 -45.5 -82
t-16.5 -104q0 -59 21 -59q24 0 126 107zM238 598q20 0 33.5 -14t13.5 -33t-13.5 -33t-33.5 -14t-33.5 14t-13.5 33t13.5 33t33.5 14zM415 598q19 0 33 -14t14 -33t-14 -33t-33 -14t-33 14t-14 33t14 33t33 14z" />
    <glyph glyph-name="aring" unicode="&#xe5;" horiz-adv-x="442" 
d="M420 93l11 -16q-88 -88 -129 -88q-30 0 -30 47q0 43 12 86l-2 2q-126 -135 -167 -135q-23 0 -41 30.5t-18 69.5q0 62 34.5 125.5t79.5 103.5q60 54 120.5 73t135.5 22l-63 -307q-4 -23 -4 -32q0 -18 11 -18q12 0 50 37zM292 163l37 183q-77 0 -122 -45q-29 -29 -45.5 -82
t-16.5 -104q0 -59 21 -59q24 0 126 107zM348 646q39 0 66.5 -27.5t27.5 -66.5t-27.5 -66.5t-66.5 -27.5t-66.5 27.5t-27.5 66.5t27.5 66.5t66.5 27.5zM348 616q-26 0 -45 -19t-19 -45t19 -45t45 -19t45 19t19 45t-19 45t-45 19z" />
    <glyph glyph-name="ae" unicode="&#xe6;" horiz-adv-x="603" 
d="M563 79l12 -19q-100 -71 -173 -71q-49 0 -83 32t-34 96q-80 -75 -116 -101.5t-61 -26.5q-28 0 -46.5 30t-18.5 74q0 48 25.5 104.5t71.5 103.5q110 112 280 112l-8 -42q59 42 121 42q41 0 66 -18t25 -48q0 -53 -64.5 -95.5t-185.5 -64.5q-7 -39 -7 -60q0 -50 21.5 -73.5
t51.5 -23.5q46 0 123 49zM286 149l39 196q-47 0 -74.5 -9.5t-49.5 -31.5q-35 -35 -52 -87t-17 -97q0 -62 30 -62q33 0 124 91zM378 208q81 19 123 50t42 85q0 44 -38 44q-33 0 -70 -47t-57 -132z" />
    <glyph glyph-name="ccedilla" unicode="&#xe7;" horiz-adv-x="316" 
d="M-4 -205l4 20q102 -2 102 51q0 35 -49 38l44 86q-37 5 -58 32.5t-21 69.5q0 65 31.5 139t88 128t117.5 54q28 0 47.5 -15t19.5 -36q0 -16 -11 -27t-27 -11q-17 0 -43.5 21t-41.5 21q-13 0 -22 -9q-30 -30 -50 -115.5t-20 -137.5q0 -34 14.5 -54t38.5 -20q39 0 110 68
l18 -15q-91 -93 -171 -94l-14 -26q62 -15 62 -73q0 -46 -39 -71.5t-107 -25.5q-14 0 -23 2z" />
    <glyph glyph-name="egrave" unicode="&#xe8;" horiz-adv-x="360" 
d="M328 81l12 -18q-41 -34 -88.5 -54t-88.5 -20q-52 0 -83.5 36t-31.5 96q0 113 75.5 202.5t169.5 89.5q40 0 63.5 -17.5t23.5 -46.5q0 -96 -234 -165q-9 -26 -9 -58q0 -43 21 -69.5t56 -26.5q42 0 114 51zM151 208q147 47 147 135q0 44 -29 44q-69 0 -118 -179zM353 464
h-48l-131 190h92z" />
    <glyph glyph-name="eacute" unicode="&#xe9;" horiz-adv-x="360" 
d="M328 81l12 -18q-41 -34 -88.5 -54t-88.5 -20q-52 0 -83.5 36t-31.5 96q0 113 75.5 202.5t169.5 89.5q40 0 63.5 -17.5t23.5 -46.5q0 -96 -234 -165q-9 -26 -9 -58q0 -43 21 -69.5t56 -26.5q42 0 114 51zM151 208q147 47 147 135q0 44 -29 44q-69 0 -118 -179zM211 464
l87 190h92l-131 -190h-48z" />
    <glyph glyph-name="ecircumflex" unicode="&#xea;" horiz-adv-x="360" 
d="M328 81l12 -18q-41 -34 -88.5 -54t-88.5 -20q-52 0 -83.5 36t-31.5 96q0 113 75.5 202.5t169.5 89.5q40 0 63.5 -17.5t23.5 -46.5q0 -96 -234 -165q-9 -26 -9 -58q0 -43 21 -69.5t56 -26.5q42 0 114 51zM151 208q147 47 147 135q0 44 -29 44q-69 0 -118 -179zM131 464
l151 190h94l18 -190h-49l-34 109l-133 -109h-47z" />
    <glyph glyph-name="edieresis" unicode="&#xeb;" horiz-adv-x="360" 
d="M328 81l12 -18q-41 -34 -88.5 -54t-88.5 -20q-52 0 -83.5 36t-31.5 96q0 113 75.5 202.5t169.5 89.5q40 0 63.5 -17.5t23.5 -46.5q0 -96 -234 -165q-9 -26 -9 -58q0 -43 21 -69.5t56 -26.5q42 0 114 51zM151 208q147 47 147 135q0 44 -29 44q-69 0 -118 -179zM197 598
q19 0 33 -14t14 -33t-14 -33t-33 -14t-33 14t-14 33t14 33t33 14zM374 598q20 0 33.5 -14t13.5 -33t-13.5 -33t-33.5 -14t-33.5 14t-13.5 33t13.5 33t33.5 14z" />
    <glyph glyph-name="igrave" unicode="&#xec;" horiz-adv-x="252" 
d="M229 109l16 -18q-97 -102 -142 -102q-36 0 -36 40q0 19 5 41l49 239q5 25 -5 25q-11 0 -55 -45l-16 20q65 59 95 81.5t48 22.5q28 0 28 -30q0 -15 -4 -35l-54 -265q-3 -15 -3 -17q0 -12 9 -12q12 0 65 55zM299 464h-48l-131 190h92z" />
    <glyph glyph-name="iacute" unicode="&#xed;" horiz-adv-x="252" 
d="M229 109l16 -18q-97 -102 -142 -102q-36 0 -36 40q0 19 5 41l49 239q5 25 -5 25q-11 0 -55 -45l-16 20q65 59 95 81.5t48 22.5q28 0 28 -30q0 -15 -4 -35l-54 -265q-3 -15 -3 -17q0 -12 9 -12q12 0 65 55zM157 464l87 190h92l-131 -190h-48z" />
    <glyph glyph-name="icircumflex" unicode="&#xee;" horiz-adv-x="252" 
d="M229 109l16 -18q-97 -102 -142 -102q-36 0 -36 40q0 19 5 41l49 239q5 25 -5 25q-11 0 -55 -45l-16 20q65 59 95 81.5t48 22.5q28 0 28 -30q0 -15 -4 -35l-54 -265q-3 -15 -3 -17q0 -12 9 -12q12 0 65 55zM77 464l151 190h94l18 -190h-49l-34 109l-133 -109h-47z" />
    <glyph glyph-name="idieresis" unicode="&#xef;" horiz-adv-x="252" 
d="M229 109l16 -18q-97 -102 -142 -102q-36 0 -36 40q0 19 5 41l49 239q5 25 -5 25q-11 0 -55 -45l-16 20q65 59 95 81.5t48 22.5q28 0 28 -30q0 -15 -4 -35l-54 -265q-3 -15 -3 -17q0 -12 9 -12q12 0 65 55zM143 598q19 0 33 -14t14 -33t-14 -33t-33 -14t-33 14t-14 33
t14 33t33 14zM320 598q20 0 33.5 -14t13.5 -33t-13.5 -33t-33.5 -14t-33.5 14t-13.5 33t13.5 33t33.5 14z" />
    <glyph glyph-name="eth" unicode="&#xf0;" horiz-adv-x="417" 
d="M132 151q0 -52 17.5 -86.5t43.5 -34.5t51 25q24 24 44 82t20 119q0 49 -20 84t-48 35q-41 0 -74.5 -68.5t-33.5 -155.5zM465 613l11 -32l-112 -37q51 -79 51 -196q0 -75 -21.5 -146.5t-64.5 -114.5q-36 -36 -89.5 -67t-94.5 -31q-47 0 -78 42.5t-31 107.5q0 63 29 118.5
t70 89t81.5 53t67.5 19.5q18 0 30 -9q-3 60 -22 110l-122 -41l-11 32l119 40q-27 53 -71 79l17 24q74 -27 119 -82z" />
    <glyph glyph-name="ntilde" unicode="&#xf1;" horiz-adv-x="486" 
d="M139 -11h-83l64 313q5 22 -5 22q-14 0 -54 -55l-18 14q98 130 147 130q26 0 26 -29q0 -21 -4 -40l-29 -138l2 -2q160 209 223 209q20 0 31 -15t11 -41q0 -24 -9 -59l-55 -220q-9 -35 5 -35q10 0 33.5 24.5t42.5 51.5l18 -15q-91 -115 -150 -115q-40 0 -40 43q0 13 7 41
l47 190q12 48 12 66q0 16 -11 16q-37 0 -177 -190zM219 490h-40q0 54 24.5 88t71.5 34q26 0 74 -24t70 -24q39 0 45 50h38q0 -61 -25.5 -91.5t-68.5 -30.5q-26 0 -74 24t-71 24q-38 0 -44 -50z" />
    <glyph glyph-name="ograve" unicode="&#xf2;" horiz-adv-x="415" 
d="M295 413q43 0 71.5 -42t28.5 -107q0 -60 -28 -114t-68 -87.5t-81 -53.5t-71 -20q-45 0 -74 41.5t-29 105.5q0 61 27.5 115t67.5 88t82 54t74 20zM246 374q-26 0 -47 -21q-30 -30 -48 -91t-18 -111q0 -55 19 -89t45 -34q22 0 43 21q30 30 48 86.5t18 114.5t-18.5 91
t-41.5 33zM380 464h-48l-131 190h92z" />
    <glyph glyph-name="oacute" unicode="&#xf3;" horiz-adv-x="415" 
d="M295 413q43 0 71.5 -42t28.5 -107q0 -60 -28 -114t-68 -87.5t-81 -53.5t-71 -20q-45 0 -74 41.5t-29 105.5q0 61 27.5 115t67.5 88t82 54t74 20zM246 374q-26 0 -47 -21q-30 -30 -48 -91t-18 -111q0 -55 19 -89t45 -34q22 0 43 21q30 30 48 86.5t18 114.5t-18.5 91
t-41.5 33zM238 464l87 190h92l-131 -190h-48z" />
    <glyph glyph-name="ocircumflex" unicode="&#xf4;" horiz-adv-x="415" 
d="M295 413q43 0 71.5 -42t28.5 -107q0 -60 -28 -114t-68 -87.5t-81 -53.5t-71 -20q-45 0 -74 41.5t-29 105.5q0 61 27.5 115t67.5 88t82 54t74 20zM246 374q-26 0 -47 -21q-30 -30 -48 -91t-18 -111q0 -55 19 -89t45 -34q22 0 43 21q30 30 48 86.5t18 114.5t-18.5 91
t-41.5 33zM158 464l151 190h94l18 -190h-49l-34 109l-133 -109h-47z" />
    <glyph glyph-name="otilde" unicode="&#xf5;" horiz-adv-x="415" 
d="M295 413q43 0 71.5 -42t28.5 -107q0 -60 -28 -114t-68 -87.5t-81 -53.5t-71 -20q-45 0 -74 41.5t-29 105.5q0 61 27.5 115t67.5 88t82 54t74 20zM246 374q-26 0 -47 -21q-30 -30 -48 -91t-18 -111q0 -55 19 -89t45 -34q22 0 43 21q30 30 48 86.5t18 114.5t-18.5 91
t-41.5 33zM183 490h-40q0 54 24.5 88t71.5 34q26 0 74 -24t70 -24q39 0 45 50h38q0 -61 -25.5 -91.5t-68.5 -30.5q-26 0 -74 24t-71 24q-38 0 -44 -50z" />
    <glyph glyph-name="odieresis" unicode="&#xf6;" horiz-adv-x="415" 
d="M295 413q43 0 71.5 -42t28.5 -107q0 -60 -28 -114t-68 -87.5t-81 -53.5t-71 -20q-45 0 -74 41.5t-29 105.5q0 61 27.5 115t67.5 88t82 54t74 20zM246 374q-26 0 -47 -21q-30 -30 -48 -91t-18 -111q0 -55 19 -89t45 -34q22 0 43 21q30 30 48 86.5t18 114.5t-18.5 91
t-41.5 33zM224 598q20 0 33.5 -14t13.5 -33t-13.5 -33t-33.5 -14t-33.5 14t-13.5 33t13.5 33t33.5 14zM401 598q19 0 33 -14t14 -33t-14 -33t-33 -14t-33 14t-14 33t14 33t33 14z" />
    <glyph glyph-name="divide" unicode="&#xf7;" horiz-adv-x="668" 
d="M371 496q17 0 29 -12t12 -29t-12 -29.5t-29 -12.5t-29.5 12.5t-12.5 29.5t12.5 29t29.5 12zM139 315h463v-67h-463v67zM371 150q17 0 29 -12t12 -29t-12 -29.5t-29 -12.5t-29.5 12.5t-12.5 29.5t12.5 29t29.5 12z" />
    <glyph glyph-name="oslash" unicode="&#xf8;" horiz-adv-x="415" 
d="M301 282l-160 -194q17 -60 56 -60q22 0 43 21q31 31 48.5 85t17.5 116q0 3 -1.5 16.5t-1.5 15.5h-2zM295 413q34 0 62 -30l54 64l18 -14l-58 -70q24 -35 24 -99q0 -60 -28 -114t-68 -87.5t-81 -53.5t-71 -20q-18 0 -37 8.5t-27 20.5l-53 -63l-17 15l56 67
q-10 11 -17.5 41t-7.5 58q0 61 27.5 115t67.5 88t82 54t74 20zM136 117l162 195q-19 62 -52 62q-26 0 -47 -21q-29 -29 -47 -90t-18 -112q0 -22 2 -34z" />
    <glyph glyph-name="ugrave" unicode="&#xf9;" horiz-adv-x="486" 
d="M457 119l16 -16q-101 -114 -140 -114q-28 0 -28 40q0 30 11 84l24 112l-2 2q-59 -91 -136 -164.5t-102 -73.5q-29 0 -29 48q0 27 5 52l45 221q6 24 -5 24q-12 0 -47 -45l-17 14q87 110 132 110q14 0 22 -10.5t8 -27.5q0 -21 -7 -53l-45 -219q-7 -35 6 -35q12 0 34 22
q48 48 92.5 109t58.5 96l21 95q3 15 6.5 19t14.5 4h42q15 0 18.5 -5t1.5 -18l-61 -301q-5 -23 3 -23q14 0 58 53zM416 464h-48l-131 190h92z" />
    <glyph glyph-name="uacute" unicode="&#xfa;" horiz-adv-x="486" 
d="M457 119l16 -16q-101 -114 -140 -114q-28 0 -28 40q0 30 11 84l24 112l-2 2q-59 -91 -136 -164.5t-102 -73.5q-29 0 -29 48q0 27 5 52l45 221q6 24 -5 24q-12 0 -47 -45l-17 14q87 110 132 110q14 0 22 -10.5t8 -27.5q0 -21 -7 -53l-45 -219q-7 -35 6 -35q12 0 34 22
q48 48 92.5 109t58.5 96l21 95q3 15 6.5 19t14.5 4h42q15 0 18.5 -5t1.5 -18l-61 -301q-5 -23 3 -23q14 0 58 53zM274 464l87 190h92l-131 -190h-48z" />
    <glyph glyph-name="ucircumflex" unicode="&#xfb;" horiz-adv-x="486" 
d="M457 119l16 -16q-101 -114 -140 -114q-28 0 -28 40q0 30 11 84l24 112l-2 2q-59 -91 -136 -164.5t-102 -73.5q-29 0 -29 48q0 27 5 52l45 221q6 24 -5 24q-12 0 -47 -45l-17 14q87 110 132 110q14 0 22 -10.5t8 -27.5q0 -21 -7 -53l-45 -219q-7 -35 6 -35q12 0 34 22
q48 48 92.5 109t58.5 96l21 95q3 15 6.5 19t14.5 4h42q15 0 18.5 -5t1.5 -18l-61 -301q-5 -23 3 -23q14 0 58 53zM194 464l151 190h94l18 -190h-49l-34 109l-133 -109h-47z" />
    <glyph glyph-name="udieresis" unicode="&#xfc;" horiz-adv-x="486" 
d="M457 119l16 -16q-101 -114 -140 -114q-28 0 -28 40q0 30 11 84l24 112l-2 2q-59 -91 -136 -164.5t-102 -73.5q-29 0 -29 48q0 27 5 52l45 221q6 24 -5 24q-12 0 -47 -45l-17 14q87 110 132 110q14 0 22 -10.5t8 -27.5q0 -21 -7 -53l-45 -219q-7 -35 6 -35q12 0 34 22
q48 48 92.5 109t58.5 96l21 95q3 15 6.5 19t14.5 4h42q15 0 18.5 -5t1.5 -18l-61 -301q-5 -23 3 -23q14 0 58 53zM260 598q20 0 33.5 -14t13.5 -33t-13.5 -33t-33.5 -14t-33.5 14t-13.5 33t13.5 33t33.5 14zM437 598q19 0 33 -14t14 -33t-14 -33t-33 -14t-33 14t-14 33
t14 33t33 14z" />
    <glyph glyph-name="yacute" unicode="&#xfd;" horiz-adv-x="451" 
d="M237 -232h-233l5 27q51 0 67 16q20 20 58.5 112t38.5 148q0 67 -17 172.5t-40 105.5q-21 0 -59 -62l-19 14q74 112 119 112q34 0 57 -64.5t31 -142t8 -158.5h2q36 65 63.5 126t38.5 94t11 42q0 6 -13 18.5t-13 31.5q0 23 15.5 38t39.5 15q23 0 37.5 -14.5t14.5 -37.5
q0 -46 -61 -139l-47 -71q-78 -119 -107 -192l-49 -124q-10 -25 1.5 -32.5t55.5 -7.5zM256 464l87 190h92l-131 -190h-48z" />
    <glyph glyph-name="thorn" unicode="&#xfe;" horiz-adv-x="459" 
d="M186 -232h-256l5 27q56 1 74.5 19t32.5 88l134 663q6 28 -5 28q-13 0 -64 -60l-19 15q45 55 87.5 89t66.5 34q29 0 29 -37q0 -11 -4 -31l-69 -340l2 -2q46 65 95.5 108.5t76.5 43.5q29 0 49.5 -42.5t20.5 -100.5q0 -104 -74 -192.5t-175 -88.5q-25 0 -49 5l-24 -114
q-6 -32 -6 -44q0 -23 16.5 -32t60.5 -9zM187 208l-33 -162q34 -28 62 -28q56 0 96.5 72t40.5 172q0 84 -30 84q-28 0 -136 -138z" />
    <glyph glyph-name="ydieresis" unicode="&#xff;" horiz-adv-x="451" 
d="M237 -232h-233l5 27q51 0 67 16q20 20 58.5 112t38.5 148q0 67 -17 172.5t-40 105.5q-21 0 -59 -62l-19 14q74 112 119 112q34 0 57 -64.5t31 -142t8 -158.5h2q36 65 63.5 126t38.5 94t11 42q0 6 -13 18.5t-13 31.5q0 23 15.5 38t39.5 15q23 0 37.5 -14.5t14.5 -37.5
q0 -46 -61 -139l-47 -71q-78 -119 -107 -192l-49 -124q-10 -25 1.5 -32.5t55.5 -7.5zM242 598q20 0 33.5 -14t13.5 -33t-13.5 -33t-33.5 -14t-33.5 14t-13.5 33t13.5 33t33.5 14zM419 598q19 0 33 -14t14 -33t-14 -33t-33 -14t-33 14t-14 33t14 33t33 14z" />
    <glyph glyph-name="dotlessi" unicode="&#x131;" horiz-adv-x="252" 
d="M229 109l16 -18q-97 -102 -142 -102q-36 0 -36 40q0 19 5 41l49 239q5 25 -5 25q-11 0 -55 -45l-16 20q65 59 95 81.5t48 22.5q28 0 28 -30q0 -15 -4 -35l-54 -265q-3 -15 -3 -17q0 -12 9 -12q12 0 65 55z" />
    <glyph glyph-name="Lslash" unicode="&#x141;" horiz-adv-x="585" 
d="M559 0h-551l6 27q57 -1 73 15q19 20 28 63l27 115l-104 -71l10 50l103 74l43 211q10 50 10 65q0 27 -20 36.5t-64 9.5l6 27h281l-6 -27q-59 0 -75.5 -18.5t-32.5 -99.5l-25 -123l164 113l-10 -50l-164 -113l-36 -178q-6 -26 -6 -48q0 -26 20 -34t81 -8q84 0 126.5 8
t71.5 29t66 70h26z" />
    <glyph glyph-name="lslash" unicode="&#x142;" horiz-adv-x="252" 
d="M210 93l16 -16q-88 -88 -134 -88q-19 0 -30.5 13t-11.5 35q0 31 8 67l30 142l-2 2l-73 -83l-4 -4l12 62l79 87l53 261l5 27q0 15 -10 15q-13 0 -58 -28l-11 19q51 29 71 38q63 29 83 29q15 0 16 -22q0 -13 -7 -45l-35 -174l2 -2l86 96l4 4l-12 -62l-92 -100l-60 -295
q-7 -33 4 -33q13 0 71 55z" />
    <glyph glyph-name="OE" unicode="&#x152;" horiz-adv-x="1018" 
d="M954 0h-391q-29 0 -68 -3q-9 0 -35 -1.5t-36 -1.5q-91 0 -158 26t-103 69.5t-53 91.5t-17 101q0 65 24.5 125t71.5 110.5t126 81t179 30.5q19 0 65 -4q10 0 30.5 -1.5t27.5 -1.5h432l-29 -144h-28q0 59 -19.5 85.5t-71.5 26.5h-165l-53 -260h126q56 0 82 15.5t41 54.5h28
l-38 -188h-28q5 47 -14 66.5t-63 19.5h-141l-39 -187q-4 -24 -4 -32q0 -28 21 -37.5t86 -9.5q86 0 139.5 25.5t90.5 84.5h30zM543 154l66 324q5 27 5 45q0 73 -119 73q-59 0 -108.5 -20.5t-82.5 -55t-56 -80t-33 -94t-10 -98.5q0 -109 59.5 -165.5t145.5 -56.5
q60 0 89.5 28.5t43.5 99.5z" />
    <glyph glyph-name="oe" unicode="&#x153;" horiz-adv-x="613" 
d="M558 79l12 -17q-96 -73 -174 -73q-81 0 -107 73q-90 -73 -150 -73q-44 0 -72 41t-28 105q0 63 27.5 118t67 88.5t80 52.5t71.5 19q56 0 83 -77q71 77 160 77q43 0 67 -17.5t24 -48.5q0 -49 -61 -93t-189 -67q-5 -31 -5 -59q0 -48 19 -74t54 -26q53 0 121 51zM233 374
q-36 0 -70.5 -71.5t-34.5 -150.5q0 -54 17.5 -89t44.5 -35q20 0 37 17q28 28 48 94.5t20 125.5q0 46 -18 77.5t-44 31.5zM374 208q165 38 165 135q0 20 -10 32t-27 12q-38 0 -74 -50.5t-54 -128.5z" />
    <glyph glyph-name="Scaron" unicode="&#x160;" horiz-adv-x="558" 
d="M52 40l38 156h25q-6 -84 43 -133t130 -49q62 0 102 31t40 79q0 46 -46 92q-19 19 -85 69t-82 66q-55 55 -55 122q0 72 57.5 118.5t146.5 46.5q29 0 85 -9.5t59 -9.5q14 0 22 12h28l-21 -172h-26q-6 71 -44 110t-102 39q-52 0 -87 -26.5t-35 -66.5q0 -39 36 -75
q15 -15 90 -73t95 -78q32 -32 44.5 -60t12.5 -65q0 -80 -66.5 -130t-174.5 -50q-107 0 -230 56zM558 864l-151 -190h-94l-18 190h49l34 -109l133 109h47z" />
    <glyph glyph-name="scaron" unicode="&#x161;" horiz-adv-x="351" 
d="M100 273q0 42 51 91t107 49q35 0 57.5 -19t22.5 -49q0 -21 -12 -35t-31 -14q-16 0 -27 12t-15 27t-13 27t-23 12q-16 0 -30.5 -15.5t-14.5 -32.5q0 -19 18 -45t39.5 -48.5t39.5 -54t18 -60.5q0 -56 -48.5 -92.5t-121.5 -36.5q-104 0 -104 56q0 17 12 28.5t30 11.5
q26 0 66 -29t62 -29q18 0 29 10.5t11 27.5q0 20 -19 48t-42.5 51.5t-42.5 54t-19 54.5zM447 654l-151 -190h-94l-18 190h49l34 -109l133 109h47z" />
    <glyph glyph-name="Ydieresis" unicode="&#x178;" horiz-adv-x="684" 
d="M306 256l-107 243q-25 57 -42.5 76t-48.5 20l6 27h232l-6 -27q-56 -2 -56 -34q0 -15 10 -35l103 -234l196 225q21 24 21 45q0 33 -59 33l6 27h197l-6 -27q-49 -4 -96 -58l-249 -281l-24 -118q-8 -40 -8 -56q0 -34 19.5 -45t76.5 -10l-6 -27h-306l6 27q56 -1 79.5 19.5
t35.5 80.5zM366 808q20 0 33.5 -14t13.5 -33t-13.5 -33t-33.5 -14t-33.5 14t-13.5 33t13.5 33t33.5 14zM543 808q19 0 33 -14t14 -33t-14 -33t-33 -14t-33 14t-14 33t14 33t33 14z" />
    <glyph glyph-name="Zcaron" unicode="&#x17d;" horiz-adv-x="703" 
d="M620 0h-589v32l546 558h-201q-72 0 -114 -32t-71 -110h-27l40 174h512v-32l-546 -558h248q91 0 131.5 27t94.5 119h27zM630 864l-151 -190h-94l-18 190h49l34 -109l133 109h47z" />
    <glyph glyph-name="zcaron" unicode="&#x17e;" horiz-adv-x="480" 
d="M421 102l22 -14q-68 -99 -127 -99q-32 0 -95 31l-40 21q-31 17 -59 17q-39 0 -40 -34l-1 -15q0 -20 -21 -20q-10 0 -17 7t-7 18q0 37 60 94q32 32 87 66q22 14 98 54q110 58 154 117l-2 2q-63 -42 -116 -42q-38 0 -95 29q-36 18 -53 18q-18 0 -31.5 -9.5t-32.5 -35.5
l-21 13q32 49 64 71t71 22q33 0 86 -28q58 -31 89 -31q33 0 48 36q9 23 24 23q19 0 19 -19q0 -37 -55 -92q-60 -61 -171 -119q-72 -36 -112 -67q-19 -14 -46 -39l2 -2q47 31 93 31q32 0 107 -33q38 -17 56 -17q30 0 62 46zM512 654l-151 -190h-94l-18 190h49l34 -109
l133 109h47z" />
    <glyph glyph-name="florin" unicode="&#x192;" horiz-adv-x="488" 
d="M404 361h-84l-34 -223q-27 -179 -92 -274.5t-194 -95.5q-31 0 -51 13.5t-20 38.5q0 19 12.5 31t31.5 12q22 0 46.5 -27.5t50.5 -27.5q46 0 72 58t53 227l42 268h-68l5 25q44 7 71 16q27 132 87 200.5t148 68.5q80 0 80 -50q0 -18 -12 -29t-32 -11q-22 0 -48 26.5
t-48 26.5q-33 0 -52 -49t-40 -183h84z" />
    <glyph glyph-name="circumflex" unicode="&#x2c6;" horiz-adv-x="333" 
d="M117 464l151 190h94l18 -190h-49l-34 109l-133 -109h-47z" />
    <glyph glyph-name="caron" unicode="&#x2c7;" horiz-adv-x="333" 
d="M438 654l-151 -190h-94l-18 190h49l34 -109l133 109h47z" />
    <glyph glyph-name="uni02C9" unicode="&#x2c9;" horiz-adv-x="333" 
d="M141 513l16 80h224l-16 -80h-224z" />
    <glyph glyph-name="breve" unicode="&#x2d8;" horiz-adv-x="333" 
d="M117 644h25q18 -90 101 -90q38 0 67.5 23.5t45.5 66.5h24q-14 -79 -53.5 -122.5t-96.5 -43.5q-53 0 -84 46t-29 120z" />
    <glyph glyph-name="dotaccent" unicode="&#x2d9;" horiz-adv-x="333" 
d="M236 598q20 0 33.5 -14t13.5 -33t-13.5 -33t-33.5 -14t-33.5 14t-13.5 33t13.5 33t33.5 14z" />
    <glyph glyph-name="ring" unicode="&#x2da;" horiz-adv-x="333" 
d="M293 646q39 0 66.5 -27.5t27.5 -66.5t-27.5 -66.5t-66.5 -27.5t-66.5 27.5t-27.5 66.5t27.5 66.5t66.5 27.5zM293 616q-26 0 -45 -19t-19 -45t19 -45t45 -19t45 19t19 45t-19 45t-45 19z" />
    <glyph glyph-name="ogonek" unicode="&#x2db;" horiz-adv-x="333" 
d="M98 7h30q-15 -33 -15 -59q0 -35 29 -57.5t76 -22.5q28 0 51 7l15 -13q-60 -47 -122 -47q-51 0 -84.5 26.5t-33.5 66.5q0 45 54 99z" />
    <glyph glyph-name="tilde" unicode="&#x2dc;" horiz-adv-x="333" 
d="M142 490h-40q0 54 24.5 88t71.5 34q26 0 74 -24t70 -24q39 0 45 50h38q0 -61 -25.5 -91.5t-68.5 -30.5q-26 0 -74 24t-71 24q-38 0 -44 -50z" />
    <glyph glyph-name="hungarumlaut" unicode="&#x2dd;" horiz-adv-x="333" 
d="M276 464l87 190h92l-131 -190h-48zM151 464l87 190h92l-131 -190h-48z" />
    <glyph glyph-name="uni03A9" unicode="&#x3a9;" horiz-adv-x="660" 
d="M632 134l-50 -134h-216l-3 17l36.5 50.5t45.5 65t39.5 64t38.5 77t22 74.5q27 136 -8.5 199t-107.5 63q-76 0 -134.5 -63t-86.5 -203q-7 -36 -7 -76t2.5 -65.5t14.5 -70t16 -56.5l20 -58l-12 -18h-214l6 134l24 1q5 -43 16.5 -56t39.5 -13h93l-22 24.5t-22.5 28.5
t-22.5 34.5t-18 39.5t-13 46t-3.5 52t6.5 59q26 130 118 209.5t207 79.5q117 0 175 -76t31 -206q-10 -46 -32.5 -89t-57 -81.5t-61 -63.5t-65.5 -57h99q28 0 42.5 12t38.5 57z" />
    <glyph glyph-name="uni03BC" unicode="&#x3bc;" horiz-adv-x="500" 
d="M164 413h83l-74 -269q-10 -35 -10 -59q0 -19 11 -31.5t28 -12.5q31 0 59 28q54 54 85 168l48 176h83l-82 -298q-8 -27 -8 -48q0 -14 7 -22.5t18 -8.5q26 0 55 64h17q-13 -49 -44 -80t-70 -31q-37 0 -53 30t-8 79l-2 2q-33 -55 -72 -83t-74 -28q-47 0 -70 45
q-22 -62 -22 -121q0 -120 -54 -120q-15 0 -25.5 12t-10.5 29q0 14 15.5 49l42 98.5t44.5 129.5z" />
    <glyph glyph-name="pi" unicode="&#x3c0;" horiz-adv-x="515" 
d="M531 433l21 -8q-20 -54 -49 -85q-16 -4 -62 -4q-14 -48 -47 -209q-17 -83 22 -83q21 0 50 27l8 -20q-47 -62 -108 -62q-40 0 -56 26t-3 92q19 95 57 231q-102 2 -138 2l-3 -16q-19 -95 -47.5 -171t-46.5 -106t-30 -42q-34 -14 -60 -16l-2 16q57 58 96 153t57 183
q-28 0 -51 -5.5t-35 -12t-38 -22.5l-9 21l6 6q23 24 39 37t51 27t76 14q30 0 114 -2q20 0 63 -0.5t65 -0.5t34 6t26 24z" />
    <glyph glyph-name="uni2010" unicode="&#x2010;" horiz-adv-x="333" 
d="M53 163l16 78h248l-16 -78h-248z" />
    <glyph glyph-name="figuredash" unicode="&#x2012;" horiz-adv-x="490" 
d="M45 255h450v-78h-450v78z" />
    <glyph glyph-name="endash" unicode="&#x2013;" horiz-adv-x="500" 
d="M10 255h512v-78h-512v78z" />
    <glyph glyph-name="emdash" unicode="&#x2014;" horiz-adv-x="1000" 
d="M10 255h1012v-78h-1012v78z" />
    <glyph glyph-name="quoteleft" unicode="&#x2018;" horiz-adv-x="279" 
d="M299 671l12 -20q-92 -42 -92 -107q0 -26 17 -54t17 -46q0 -24 -15 -39.5t-38 -15.5q-29 0 -46.5 23.5t-17.5 60.5q0 63 45 118t118 80z" />
    <glyph glyph-name="quoteright" unicode="&#x2019;" horiz-adv-x="279" 
d="M138 389l-12 20q92 42 92 107q0 26 -17 54t-17 46q0 24 15 39.5t38 15.5q29 0 46.5 -23.5t17.5 -60.5q0 -63 -45 -118t-118 -80z" />
    <glyph glyph-name="quotesinglbase" unicode="&#x201a;" horiz-adv-x="279" 
d="M31 -166l-12 20q92 42 92 107q0 26 -17 54t-17 46q0 24 15 39.5t38 15.5q29 0 46.5 -23.5t17.5 -60.5q0 -63 -45 -118t-118 -80z" />
    <glyph glyph-name="quotedblleft" unicode="&#x201c;" horiz-adv-x="504" 
d="M300 671l12 -20q-92 -42 -92 -108q0 -25 17 -54.5t17 -44.5q0 -24 -15 -39.5t-38 -15.5q-29 0 -46.5 22.5t-17.5 60.5q0 64 44.5 118.5t118.5 80.5zM519 671l12 -20q-93 -43 -93 -108q0 -24 17.5 -54.5t17.5 -44.5q0 -24 -15 -39.5t-38 -15.5q-29 0 -47 23t-18 60
q0 64 45 118.5t119 80.5z" />
    <glyph glyph-name="quotedblright" unicode="&#x201d;" horiz-adv-x="504" 
d="M357 389l-12 20q92 42 92 107q0 26 -17 54t-17 46q0 24 15 39.5t38 15.5q29 0 46.5 -23.5t17.5 -60.5q0 -63 -45 -118t-118 -80zM138 389l-12 20q92 42 92 107q0 26 -17 54t-17 46q0 24 15 39.5t38 15.5q29 0 46.5 -23.5t17.5 -60.5q0 -63 -45 -118t-118 -80z" />
    <glyph glyph-name="quotedblbase" unicode="&#x201e;" horiz-adv-x="504" 
d="M269 -165l-12 20q92 42 92 107q0 26 -17 54t-17 46q0 24 15 39.5t38 15.5q29 0 46.5 -23.5t17.5 -60.5q0 -63 -45 -118t-118 -80zM50 -165l-12 20q92 42 92 107q0 26 -17 54t-17 46q0 24 15 39.5t38 15.5q29 0 46.5 -23.5t17.5 -60.5q0 -63 -45 -118t-118 -80z" />
    <glyph glyph-name="dagger" unicode="&#x2020;" horiz-adv-x="469" 
d="M298 342l-60 -528q-2 -20 -7.5 -25t-26.5 -5h-66q-15 0 -22 5.5t-5 12.5l147 540l-173 -27h-4q-10 0 -14 3t-3 8l13 67q3 14 9 17t22 0l158 -30l8 218q1 24 5 28.5t26 4.5h67q18 0 18 -11t-5 -22l-79 -218l176 30q22 5 22 -12q0 -9 -3 -18l-10 -46q-3 -15 -7.5 -19
t-11.5 -3z" />
    <glyph glyph-name="daggerdbl" unicode="&#x2021;" horiz-adv-x="477" 
d="M213 207l64 171l-187 -31q-4 -1 -7 2.5t-3 7.5l13 69q2 11 8.5 13.5t20.5 0.5l162 -28l1 189q0 19 5.5 24.5t22.5 5.5h60q16 0 20 -4.5t0 -15.5l-74 -199l165 28q20 4 26.5 -2t3.5 -21l-10 -49q-3 -15 -7.5 -19.5t-11.5 -2.5l-172 32l-10 -171l-59 -168l179 33q7 1 13 -2
t5 -8l-12 -62q-3 -15 -7.5 -19.5t-14.5 -2.5l-171 22v-190q0 -14 -5.5 -19t-22.5 -5h-67q-30 0 -20 23l79 191l-165 -20q-18 -2 -24.5 0.5t-4.5 11.5l12 63q1 9 6.5 14t11.5 3l172 -33z" />
    <glyph glyph-name="bullet" unicode="&#x2022;" horiz-adv-x="350" 
d="M227 409q50 0 85 -35t35 -85t-35 -85.5t-85 -35.5t-85.5 35.5t-35.5 85.5t35.5 85t85.5 35z" />
    <glyph glyph-name="onedotenleader" unicode="&#x2024;" horiz-adv-x="432" 
d="M224 116q21 0 34 -15.5t13 -38.5q0 -27 -18 -49t-44 -22q-21 0 -34 15.5t-13 37.5q0 27 18 49.5t44 22.5z" />
    <glyph glyph-name="twodotenleader" unicode="&#x2025;" horiz-adv-x="433" 
d="M116 116q21 0 34 -15.5t13 -38.5q0 -27 -18 -49t-44 -22q-22 0 -35 15.5t-13 37.5q0 27 18 49.5t45 22.5zM332 116q21 0 34 -15.5t13 -38.5q0 -27 -18 -49t-44 -22q-22 0 -34.5 15t-12.5 38q0 27 18 49.5t44 22.5z" />
    <glyph glyph-name="ellipsis" unicode="&#x2026;" horiz-adv-x="865" 
d="M144 102q29 0 47.5 -16t18.5 -42q0 -25 -18 -40t-48 -15q-31 0 -49 15t-18 40t19 41.5t48 16.5zM722 102q29 0 47.5 -16t18.5 -42q0 -25 -18 -40t-48 -15q-31 0 -49 15t-18 40t19 41.5t48 16.5zM433 102q29 0 47.5 -16t18.5 -42q0 -25 -18 -40t-48 -15q-31 0 -49 15
t-18 40t19 41.5t48 16.5z" />
    <glyph glyph-name="perthousand" unicode="&#x2030;" horiz-adv-x="1027" 
d="M274 566q0 51 -33 51q-16 0 -31 -15q-29 -29 -49 -105.5t-20 -125.5q0 -52 32 -52q18 0 32 14q21 21 45 100t24 133zM339 524q0 -78 -48 -152t-119 -74q-43 0 -69.5 32.5t-26.5 85.5q0 41 18.5 91t58.5 90.5t90 40.5q43 0 69.5 -32t26.5 -82zM82 -40l574 678h61
l-574 -678h-61zM1045 217q0 -78 -48 -152t-119 -74q-43 0 -69.5 32.5t-26.5 85.5q0 41 18.5 91t58.5 90.5t90 40.5q43 0 69.5 -32t26.5 -82zM980 259q0 51 -33 51q-16 0 -31 -15q-29 -29 -49 -105.5t-20 -125.5q0 -52 32 -52q18 0 32 14q21 21 45 100t24 133zM747 217
q0 -78 -48 -152t-119 -74q-43 0 -69.5 32.5t-26.5 85.5q0 41 18.5 91t58.5 90.5t90 40.5q43 0 69.5 -32t26.5 -82zM682 259q0 51 -33 51q-16 0 -31 -15q-29 -29 -49 -105.5t-20 -125.5q0 -52 32 -52q18 0 32 14q21 21 45 100t24 133z" />
    <glyph glyph-name="guilsinglleft" unicode="&#x2039;" horiz-adv-x="289" 
d="M158 37l-121 184l202 181h37l-144 -181l63 -184h-37z" />
    <glyph glyph-name="guilsinglright" unicode="&#x203a;" horiz-adv-x="289" 
d="M182 402l121 -184l-202 -181h-37l144 181l-63 184h37z" />
    <glyph glyph-name="fraction" unicode="&#x2044;" horiz-adv-x="171" 
d="M-200 -40l574 678h60l-569 -678h-65z" />
    <glyph glyph-name="zero.superior" unicode="&#x2070;" 
d="M274 741q49 0 73 -35t24 -78q0 -80 -49 -153.5t-118 -73.5q-42 0 -69 32t-27 86q0 46 20.5 96.5t60 88t85.5 37.5zM274 720q-43 0 -72 -92.5t-29 -153.5q0 -52 32 -52q25 0 39 23q24 37 43 108.5t19 116.5q0 50 -32 50z" />
    <glyph glyph-name="four.superior" unicode="&#x2074;" 
d="M205 401l22 97h-120v40l211 202h30l-47 -200h56l-10 -42h-56l-22 -97h-64zM145 540h92l27 113z" />
    <glyph glyph-name="five.superior" unicode="&#x2075;" 
d="M160 578l48 153q30 2 113 1q17 0 22 9h24l-13 -57q-17 -2 -55 -2q-6 0 -39.5 0.5t-38.5 0.5l-17 -60q2 1 6.5 2t6.5 1q5 1 15 1q41 0 62.5 -24t21.5 -53q0 -56 -57.5 -102.5t-119.5 -46.5q-24 0 -39.5 8.5t-15.5 20.5q0 10 9 16.5t21 6.5t30 -11q18 -13 33 -13
q29 0 53.5 34.5t24.5 71.5q0 44 -44 44q-21 0 -38 -13z" />
    <glyph glyph-name="six.superior" unicode="&#x2076;" 
d="M387 742l-5 -20q-35 -10 -62 -24.5t-48 -37t-31 -36t-28 -41.5q31 14 55 14q33 0 53.5 -19t20.5 -50q0 -52 -42.5 -89.5t-93.5 -37.5q-41 0 -66 26.5t-25 68.5q0 79 74.5 153t197.5 93zM199 550q-22 -50 -22 -88q0 -6 1.5 -14t8 -16.5t17.5 -8.5q30 0 51 44t21 77
q0 29 -24 29q-17 0 -53 -23z" />
    <glyph glyph-name="seven.superior" unicode="&#x2077;" 
d="M224 401h-54l165 280h-121q-26 0 -31 -5q-5 -6 -17 -40h-26l26 96h223v-18z" />
    <glyph glyph-name="eight.superior" unicode="&#x2078;" 
d="M206 574q-45 43 -45 78q0 33 31.5 61t81.5 28q38 0 65.5 -17.5t27.5 -47.5q0 -26 -22 -45.5t-69 -42.5q18 -18 27.5 -29t19.5 -29.5t10 -35.5q0 -37 -36 -65t-86 -28q-42 0 -70.5 21t-28.5 55q0 30 23 51t71 46zM259 604q51 37 51 74q0 16 -10 29.5t-31 13.5
q-24 0 -38.5 -16t-14.5 -36q0 -24 43 -65zM223 558q-55 -38 -55 -88q0 -18 10 -33t34 -15t42.5 17.5t18.5 39.5q0 31 -50 79z" />
    <glyph glyph-name="nine.superior" unicode="&#x2079;" 
d="M94 401l5 20q46 13 81.5 39t50.5 45.5t37 54.5q-34 -14 -55 -14q-33 0 -53.5 19.5t-20.5 49.5q0 51 43 89t94 38q40 0 65 -26.5t25 -68.5q0 -80 -75.5 -153.5t-196.5 -92.5zM282 593q22 50 22 88q0 39 -27 39q-30 0 -51 -43.5t-21 -77.5q0 -29 24 -29q19 0 53 23z" />
    <glyph glyph-name="parenleft.superior" unicode="&#x207d;" horiz-adv-x="216" 
d="M301 668l14 -18q-64 -51 -110 -144t-46 -186q0 -75 38 -166l-23 -11q-79 115 -79 210q0 97 62 181t144 134z" />
    <glyph glyph-name="parenright.superior" unicode="&#x207e;" horiz-adv-x="216" 
d="M32 143l-14 19q66 53 111 146t45 184q0 75 -38 166l23 10q79 -114 79 -209q0 -94 -59.5 -178t-146.5 -138z" />
    <glyph glyph-name="n.superior" unicode="&#x207f;" horiz-adv-x="316" 
d="M90 262h-64l42 188q3 13 -3 13q-10 0 -35 -33l-12 11q64 78 106 78q16 0 16 -18q0 -17 -5 -37l-16 -69l1 -2q58 70 93 98t62 28q28 0 28 -34q0 -11 -6 -35l-35 -129q-4 -17 2 -17q16 0 51 39l12 -9q-62 -72 -109 -72q-26 0 -26 26q0 12 4 25l31 110q8 28 8 39q0 10 -7 10
q-25 0 -116 -114z" />
    <glyph glyph-name="zero.inferior" unicode="&#x2080;" 
d="M186 220q48 0 72 -35t24 -78q0 -79 -48.5 -152.5t-118.5 -73.5q-42 0 -69 31.5t-27 85.5q0 46 20 96.5t60 88t87 37.5zM185 199q-43 0 -72 -92.5t-29 -153.5q0 -51 32 -51q24 0 39 23q24 37 43 108t19 116q0 50 -32 50z" />
    <glyph glyph-name="one.inferior" unicode="&#x2081;" 
d="M203 -111h-164l5 17q33 1 42 6.5t15 34.5l48 203q-54 -31 -96 -46l5 25q99 41 138 91h36l-61 -261q-6 -23 -6 -32q0 -12 8.5 -15t34.5 -6z" />
    <glyph glyph-name="two.inferior" unicode="&#x2082;" 
d="M218 -111h-220v17q114 97 164 153q40 46 40 84q0 15 -12 26t-33 11q-51 0 -76 -51h-27q10 33 32 55q38 36 91 36q40 0 67 -22.5t27 -53.5q0 -28 -31 -65q-41 -43 -168 -140h110q13 0 17 4.5t11 24.5h27z" />
    <glyph glyph-name="three.inferior" unicode="&#x2083;" 
d="M78 49l5 24q101 52 101 88q0 12 -8 22t-22 10q-25 0 -57 -32l-16 13q6 8 16 17t32.5 19t47.5 10q34 0 53 -15.5t19 -36.5t-19 -36.5t-61 -34.5q62 -10 62 -63q0 -57 -60.5 -105t-120.5 -48q-20 0 -38 6t-18 19q0 10 8 18t20 8q9 0 33 -14q18 -9 34 -9q27 0 50 36.5
t23 74.5q0 20 -11 32t-27 12q-13 0 -46 -15z" />
    <glyph glyph-name="four.inferior" unicode="&#x2084;" 
d="M115 -119l23 97h-120v40l211 202h30l-47 -200h56l-10 -42h-56l-23 -97h-64zM56 20h92l27 113z" />
    <glyph glyph-name="five.inferior" unicode="&#x2085;" 
d="M71 56l48 154q30 2 113 1q16 0 22 9h24l-13 -57q-17 -2 -55 -2q-6 0 -39.5 0.5t-38.5 0.5l-17 -58q18 3 27 3q41 0 63 -24t22 -54q0 -56 -57.5 -102t-119.5 -46q-25 0 -40 8.5t-15 20.5q0 10 9 16.5t21 6.5t30 -11q19 -13 33 -13q29 0 53.5 34t24.5 72q0 44 -44 44
q-20 0 -38 -14z" />
    <glyph glyph-name="six.inferior" unicode="&#x2086;" 
d="M298 220l-5 -20q-46 -12 -81.5 -37t-50.5 -44.5t-38 -55.5q33 14 56 14q33 0 53.5 -19.5t20.5 -49.5q0 -51 -42.5 -89t-94.5 -38q-41 0 -66 27t-25 68q0 79 75 152.5t198 91.5zM109 30q-22 -50 -22 -88q0 -6 1.5 -14t8.5 -16.5t18 -8.5q30 0 51 44t21 77q0 29 -24 29
q-18 0 -54 -23z" />
    <glyph glyph-name="seven.inferior" unicode="&#x2087;" 
d="M135 -119h-54l164 280h-116q-30 0 -35 -5q-5 -6 -17 -40h-26l26 96h223v-18z" />
    <glyph glyph-name="eight.inferior" unicode="&#x2088;" 
d="M117 53q-46 44 -45 78q0 33 31.5 61t81.5 28q38 0 65.5 -17.5t27.5 -47.5q0 -26 -22 -45.5t-69 -42.5q57 -55 57 -94q0 -37 -35.5 -65t-86.5 -28q-43 0 -71.5 21.5t-28.5 54.5q0 30 23.5 51t71.5 46zM169 83q52 34 52 74q0 16 -10 29.5t-31 13.5q-24 0 -38.5 -16
t-14.5 -36q0 -24 42 -65zM134 37q-56 -37 -56 -88q0 -18 10 -33t34 -15q25 0 43.5 17t18.5 40q0 32 -50 79z" />
    <glyph glyph-name="nine.inferior" unicode="&#x2089;" 
d="M4 -120l5 20q35 10 62.5 25t48 36.5t31.5 36.5t28 41q-34 -14 -56 -14q-33 0 -53.5 19t-20.5 50q0 52 43 89.5t94 37.5q41 0 66 -26.5t25 -68.5q0 -80 -76.5 -154t-196.5 -92zM193 72q22 50 22 88q0 39 -28 39q-29 0 -50.5 -44t-21.5 -77q0 -29 24 -29q19 0 54 23z" />
    <glyph glyph-name="parenleft.inferior" unicode="&#x208d;" horiz-adv-x="216" 
d="M261 396l14 -18q-64 -51 -110 -144t-46 -186q0 -75 38 -166l-23 -11q-79 115 -79 210q0 97 62 181t144 134z" />
    <glyph glyph-name="parenright.inferior" unicode="&#x208e;" horiz-adv-x="216" 
d="M-18 -129l-14 19q66 53 111 146t45 184q0 75 -38 166l23 10q79 -114 79 -209q0 -94 -59.5 -178t-146.5 -138z" />
    <glyph glyph-name="colonmonetary" unicode="&#x20a1;" horiz-adv-x="748" 
d="M298 -4l-25 -84h-49l29 98q-72 31 -118 97t-46 159q0 139 102 242.5t249 122.5l18 59h48l-15 -53q50 4 91 1l16 52h49l-17 -56q80 -9 143 -32l-40 -166h-25q6 68 -17 105t-73 55l-173 -578q136 12 235 155h27l-54 -174h-19q-14 9 -30 9q-5 0 -36 -6l-30 -5
q-60 -12 -104 -13l-21 -72h-49l22 72q-56 1 -88 12zM481 604l-169 -561q34 -19 84 -25l177 589q-16 2 -37 2q-28 0 -55 -5zM272 71l156 520q-102 -35 -164 -126t-62 -212q0 -117 70 -182z" />
    <glyph glyph-name="Euro" unicode="&#x20ac;" horiz-adv-x="528" 
d="M480 285l-6 -32h-281q0 -112 37 -174.5t93 -62.5q82 0 153 136h29q-16 -34 -32 -59.5t-39.5 -52.5t-54 -41.5t-65.5 -14.5q-58 0 -102.5 23.5t-69 64t-37 85.5t-14.5 96h-62l6 32h57q2 30 7 55h-60l6 32h62q31 110 111 188t193 78q38 0 80.5 -13t60.5 -23l-23 -143h-26
q2 16 2 25q0 62 -26 93t-72 31q-71 0 -126 -65t-77 -171h296l-6 -32h-295q-3 -18 -5 -55h286z" />
    <glyph glyph-name="afii61289" unicode="&#x2113;" horiz-adv-x="377" 
d="M341 106l15 -16q-76 -104 -175 -104q-61 0 -86 35q-23 42 -4 134l15 73l-62 -40l-7 23l76 52l24 119q23 110 42 158.5t55 82.5q45 46 92 46q40 0 54.5 -34.5t4.5 -87.5q-15 -76 -62.5 -139.5t-125.5 -128.5l-17 -83q-16 -91 -4.5 -124t52.5 -33q53 0 113 67zM229 435
l-23 -113q104 102 129 223q19 95 -21 95q-25 0 -43.5 -44.5t-41.5 -160.5z" />
    <glyph glyph-name="trademark" unicode="&#x2122;" horiz-adv-x="1000" 
d="M80 671h356l11 -98h-17q-6 38 -27 53.5t-67 15.5h-35v-284q0 -40 8.5 -51t41.5 -13v-17h-183v17q33 4 41.5 14.5t8.5 49.5v284h-39q-45 0 -64.5 -15t-27.5 -54h-17zM621 671l133 -280l129 280h136v-18q-35 -1 -44 -12t-9 -55v-228q0 -41 8.5 -51.5t44.5 -12.5v-17h-195
v17q38 1 48.5 12.5t10.5 51.5v240h-2l-148 -321h-16l-149 317h-2v-236q0 -40 9 -52t38 -12h18v-17h-151v17q36 0 46 11.5t10 52.5v228q0 45 -9.5 56t-46.5 11v18h141z" />
    <glyph glyph-name="Omega" unicode="&#x2126;" horiz-adv-x="660" 
d="M632 134l-50 -134h-216l-3 17l36.5 50.5t45.5 65t39.5 64t38.5 77t22 74.5q27 136 -8.5 199t-107.5 63q-76 0 -134.5 -63t-86.5 -203q-7 -36 -7 -76t2.5 -65.5t14.5 -70t16 -56.5l20 -58l-12 -18h-214l6 134l24 1q5 -43 16.5 -56t39.5 -13h93l-22 24.5t-22.5 28.5
t-22.5 34.5t-18 39.5t-13 46t-3.5 52t6.5 59q26 130 118 209.5t207 79.5q117 0 175 -76t31 -206q-10 -46 -32.5 -89t-57 -81.5t-61 -63.5t-65.5 -57h99q28 0 42.5 12t38.5 57z" />
    <glyph glyph-name="estimated" unicode="&#x212e;" horiz-adv-x="893" 
d="M862 301h-587q-5 0 -5 -4v-177q0 -11 8 -21q93 -96 222 -96q140 0 233 108h53q-50 -58 -125.5 -92t-161.5 -34q-150 0 -256.5 95t-106.5 230q0 136 106.5 231.5t256.5 95.5q151 0 257 -95.5t106 -231.5v-9zM729 325v178q0 13 -9 21q-93 93 -220 93q-129 0 -222 -95
q-8 -10 -8 -23v-174q0 -6 5 -6h450q4 0 4 6z" />
    <glyph glyph-name="onethird" unicode="&#x2153;" horiz-adv-x="766" 
d="M89 -38l574 677h61l-574 -677h-61zM264 302h-164l6 17q32 1 41 6.5t15 34.5l48 203q-49 -29 -96 -46l5 25q99 41 138 90h36l-61 -260q-6 -28 -6 -32q0 -12 8.5 -15t34.5 -6zM539 160l5 24q101 52 101 88q0 12 -8 22t-22 10q-25 0 -57 -32l-16 13q6 8 16 17t32.5 19
t47.5 10q34 0 53 -15.5t19 -36.5t-19 -36.5t-61 -34.5q62 -10 62 -63q0 -57 -60.5 -105t-120.5 -48q-20 0 -38 6t-18 19q0 10 8 18t20 8q9 0 33 -14q18 -9 34 -9q27 0 50 36.5t23 74.5q0 20 -11 32t-27 12q-13 0 -46 -15z" />
    <glyph glyph-name="twothirds" unicode="&#x2154;" horiz-adv-x="766" 
d="M104 -38l574 677h60l-573 -677h-61zM299 302h-220v17q114 97 164 153q40 46 40 87q0 14 -12 24t-33 10q-44 0 -75 -51h-28q11 35 32 55q38 36 91 36q40 0 67 -22.5t27 -53.5q0 -28 -31 -65q-41 -43 -168 -140h110q13 0 17 4.5t11 24.5h27zM559 160l5 24q101 52 101 88
q0 12 -8 22t-22 10q-25 0 -57 -32l-16 13q6 8 16 17t32.5 19t47.5 10q34 0 53 -15.5t19 -36.5t-19 -36.5t-61 -34.5q62 -10 62 -63q0 -57 -60.5 -105t-120.5 -48q-20 0 -38 6t-18 19q0 10 8 18t20 8q9 0 33 -14q18 -9 34 -9q27 0 50 36.5t23 74.5q0 20 -11 32t-27 12
q-13 0 -46 -15z" />
    <glyph glyph-name="oneeighth" unicode="&#x215b;" horiz-adv-x="766" 
d="M587 164q-46 44 -45 78q0 33 31.5 61t81.5 28q38 0 65.5 -17.5t27.5 -47.5q0 -26 -22 -45.5t-69 -42.5q57 -55 57 -94q0 -37 -35.5 -65t-86.5 -28q-43 0 -71.5 21.5t-28.5 54.5q0 30 23.5 51t71.5 46zM639 194q52 34 52 74q0 16 -10 29.5t-31 13.5q-24 0 -38.5 -16
t-14.5 -36q0 -24 42 -65zM604 148q-56 -37 -56 -88q0 -18 10 -33t34 -15q25 0 43.5 17t18.5 40q0 32 -50 79zM79 -39l574 678h60l-573 -678h-61zM263 302h-164l6 17q32 1 41 6.5t15 34.5l48 203q-49 -29 -96 -46l5 25q99 41 138 90h36l-61 -260q-6 -28 -6 -32q0 -12 8.5 -15
t34.5 -6z" />
    <glyph glyph-name="threeeighths" unicode="&#x215c;" horiz-adv-x="766" 
d="M568 164q-46 44 -45 78q0 33 31.5 61t81.5 28q38 0 65.5 -17.5t27.5 -47.5q0 -26 -22 -45.5t-69 -42.5q57 -55 57 -94q0 -37 -35.5 -65t-86.5 -28q-43 0 -71.5 21.5t-28.5 54.5q0 30 23.5 51t71.5 46zM620 194q52 34 52 74q0 16 -10 29.5t-31 13.5q-24 0 -38.5 -16
t-14.5 -36q0 -24 42 -65zM585 148q-56 -37 -56 -88q0 -18 10 -33t34 -15q25 0 43.5 17t18.5 40q0 32 -50 79zM63 -39l574 678h61l-574 -678h-61zM149 462l5 24q101 50 101 88q0 12 -7.5 22t-22.5 10q-24 0 -62 -36l-16 12q44 51 101 51q34 0 53 -15t19 -37q0 -21 -19 -36.5
t-61 -34.5q62 -10 62 -63q0 -57 -61 -105.5t-120 -48.5q-19 0 -37.5 5.5t-18.5 18.5q0 11 8.5 19t20.5 8q6 0 32 -14q18 -9 34 -9q27 0 50 36.5t23 75.5q0 20 -11 32t-27 12q-13 0 -46 -15z" />
    <glyph glyph-name="fiveeighths" unicode="&#x215d;" horiz-adv-x="766" 
d="M598 164q-46 44 -45 78q0 33 31.5 61t81.5 28q38 0 65.5 -17.5t27.5 -47.5q0 -26 -22 -45.5t-69 -42.5q57 -55 57 -94q0 -37 -35.5 -65t-86.5 -28q-43 0 -71.5 21.5t-28.5 54.5q0 30 23.5 51t71.5 46zM650 194q52 34 52 74q0 16 -10 29.5t-31 13.5q-24 0 -38.5 -16
t-14.5 -36q0 -24 42 -65zM615 148q-56 -37 -56 -88q0 -18 10 -33t34 -15q25 0 43.5 17t18.5 40q0 32 -50 79zM83 -39l574 678h61l-574 -678h-61zM149 470l48 153q30 2 113 1q17 0 22 9h24l-13 -57q-17 -2 -55 -2q-6 0 -39.5 0.5t-38.5 0.5l-17 -59q12 2 15 2q4 1 12 1
q41 0 63 -24t22 -53q0 -56 -57.5 -102.5t-119.5 -46.5q-24 0 -39.5 8.5t-15.5 20.5q0 10 9 16.5t21 6.5t30 -11q18 -13 33 -13q29 0 53.5 34.5t24.5 71.5q0 44 -44 44q-21 0 -38 -13z" />
    <glyph glyph-name="seveneighths" unicode="&#x215e;" horiz-adv-x="766" 
d="M578 164q-46 44 -45 78q0 33 31.5 61t81.5 28q38 0 65.5 -17.5t27.5 -47.5q0 -26 -22 -45.5t-69 -42.5q57 -55 57 -94q0 -37 -35.5 -65t-86.5 -28q-43 0 -71.5 21.5t-28.5 54.5q0 30 23.5 51t71.5 46zM630 194q52 34 52 74q0 16 -10 29.5t-31 13.5q-24 0 -38.5 -16
t-14.5 -36q0 -24 42 -65zM595 148q-56 -37 -56 -88q0 -18 10 -33t34 -15q25 0 43.5 17t18.5 40q0 32 -50 79zM64 -39l573 678h61l-574 -678h-60zM203 293h-54l165 280h-117q-30 0 -35 -5q-5 -6 -17 -40h-26l26 96h223v-18z" />
    <glyph glyph-name="partialdiff" unicode="&#x2202;" horiz-adv-x="484" 
d="M295 389h1q33 0 62.5 -16t44.5 -46q23 75 28 99q19 78 6 143q-8 34 -34.5 59t-65.5 25q-61 0 -136 -53q-7 -1 -13.5 10t-7.5 24.5t5 25.5q67 38 135 38q122 0 163 -130q28 -91 2 -214q-28 -137 -90 -229q-93 -139 -216 -139q-76 0 -111 49t-18 134q19 90 84 152
q71 68 161 68zM308 352h-1q-58 0 -107 -53q-55 -67 -75 -173q-10 -48 5.5 -80t54.5 -32q59 0 122 97q42 64 80 177q-6 22 -27 43t-52 21z" />
    <glyph glyph-name="Delta" unicode="&#x2206;" horiz-adv-x="578" 
d="M521 0h-513l5 24l357 605l40 10l116 -615zM426 45l-86 470l-272 -470h358z" />
    <glyph glyph-name="product" unicode="&#x220f;" horiz-adv-x="730" 
d="M705 633v-25q-58 -4 -70.5 -15t-12.5 -53v-518q0 -47 13 -59.5t68 -16.5v-25h-239v25q52 5 63 16t11 60v549q0 20 -5.5 25t-26.5 5h-178q-20 0 -25.5 -4.5t-5.5 -22.5v-552q0 -48 9.5 -59.5t58.5 -16.5v-25h-233v25q55 4 67.5 16.5t12.5 59.5v518q0 42 -12.5 53t-70.5 15
v25h576z" />
    <glyph glyph-name="summation" unicode="&#x2211;" horiz-adv-x="607" 
d="M587 93l-40 -175h-416v23l202 311l-198 357v24h412q0 -7 4.5 -61.5t6.5 -87.5l-25 -6q-11 60 -31 93q-9 18 -27.5 24.5t-67.5 6.5h-167l167 -293l-203 -318h230q60 0 80 16t47 93z" />
    <glyph glyph-name="minus" unicode="&#x2212;" horiz-adv-x="667" 
d="M138 315h463v-67h-463v67z" />
    <glyph glyph-name="uni2215" unicode="&#x2215;" horiz-adv-x="171" 
d="M-200 -40l574 678h60l-569 -678h-65z" />
    <glyph glyph-name="uni2219" unicode="&#x2219;" horiz-adv-x="289" 
d="M182 367q30 0 48.5 -16t18.5 -42t-18 -41t-49 -15q-30 0 -48 15.5t-18 40.5q0 26 18.5 42t47.5 16z" />
    <glyph glyph-name="radical" unicode="&#x221a;" horiz-adv-x="606" 
d="M592 806l-152 -944l-20 -10l-196 500l-78 -37l-11 31l146 67l148 -394h2l124 796z" />
    <glyph glyph-name="infinity" unicode="&#x221e;" horiz-adv-x="742" 
d="M699 261v-1q0 -66 -41 -106t-97 -40q-40 0 -77.5 23.5t-82.5 78.5q-42 -50 -79 -76t-85 -26q-56 0 -96 40.5t-40 102.5q0 63 40.5 104t101.5 41q80 0 162 -101q3 3 8 9q26 30 42 45.5t47.5 31t64.5 15.5q58 0 95 -39t37 -102zM243 165h2q24 0 50.5 17t38.5 30l39 43
q-21 27 -29.5 37t-27.5 28t-37.5 25t-39.5 7q-39 0 -61.5 -27.5t-22.5 -68.5q0 -38 25 -64.5t63 -26.5zM561 352h-1q-16 0 -31.5 -6t-30.5 -18.5t-24 -21.5t-24 -26t-19 -21q45 -53 72.5 -73.5t59.5 -20.5q37 0 60 28.5t23 63.5q0 43 -23.5 69t-61.5 26z" />
    <glyph glyph-name="integral" unicode="&#x222b;" horiz-adv-x="449" 
d="M252 9l-18 373q-18 385 143 385q21 0 38.5 -11.5t18.5 -32.5q0 -20 -12.5 -30.5t-29.5 -10.5t-28.5 22t-20.5 22q-42 0 -35 -149l17 -347q19 -412 -145 -412q-24 0 -40.5 13.5t-16.5 31.5q-1 19 14 32t35 13q14 0 25 -24t20 -24q43 0 35 149z" />
    <glyph glyph-name="approxequal" unicode="&#x2248;" horiz-adv-x="544" 
d="M472 395l35 -31q-46 -87 -117 -87q-39 0 -100 35q-49 30 -78 30q-27 0 -45.5 -16.5t-39.5 -47.5l-35 30q20 39 53.5 63t71.5 24q12 0 23.5 -2t22.5 -6.5t17.5 -7.5t18.5 -10t14 -8q53 -31 78 -31q42 0 81 65zM472 239l35 -31q-47 -88 -117 -88q-39 0 -100 36
q-51 30 -78 30t-45.5 -16.5t-39.5 -48.5l-35 30q20 40 53.5 63.5t71.5 23.5q11 0 21.5 -2t17.5 -3.5t17 -6t13.5 -6.5l13.5 -8t12 -7q4 -2 15.5 -9t16.5 -9.5t14 -6.5t16.5 -5.5t16.5 -1.5q24 0 42 16t39 50z" />
    <glyph glyph-name="notequal" unicode="&#x2260;" horiz-adv-x="559" 
d="M425 453l-37 -81h128v-55h-149l-55 -123h204v-54h-226l-45 -102l-43 19l38 83h-125v54h146l55 123h-201v55h222l45 99z" />
    <glyph glyph-name="lessequal" unicode="&#x2264;" horiz-adv-x="575" 
d="M529 92l-393 198v58l393 198v-64l-337 -162v-2l337 -162v-64zM532 1h-400v56h400v-56z" />
    <glyph glyph-name="greaterequal" unicode="&#x2265;" horiz-adv-x="574" 
d="M137 546l393 -198v-58l-393 -198v64l337 162v2l-337 162v64zM531 1h-399v56h399v-56z" />
    <glyph glyph-name="lozenge" unicode="&#x25ca;" horiz-adv-x="612" 
d="M569 305l-177 -368h-65l-177 368l179 370h63zM508 305l-146 311h-3l-147 -310l147 -312h3z" />
    <glyph glyph-name="R.alt" unicode="&#xe000;" horiz-adv-x="684" 
d="M663 26v-27q-25 -7 -56 -7q-24 0 -48.5 5.5t-53 18.5t-52.5 40t-37 66l-34 97q-5 15 -21 51h-63l-28 -142q-7 -34 -7 -52q0 -30 18.5 -38t70.5 -11l-5 -27h-296l6 27q59 1 78.5 20.5t33.5 89.5l73 354q7 35 7 56q0 15 -6.5 25t-20.5 14.5t-23.5 6t-29.5 3.5l5 27h242
q131 0 173 -26q34 -22 52.5 -57.5t18.5 -73.5q0 -80 -72 -136q-44 -34 -127 -50q19 -47 51 -148q36 -115 151 -106zM363 591l-59 -289q60 0 94 6q82 15 116 65t34 99q0 36 -18.5 67.5t-58.5 43.5q-28 8 -108 8z" />
    <glyph glyph-name="zero.taboldstyle" unicode="&#xf643;" horiz-adv-x="490" 
d="M93 121q0 67 27 127.5t67 100.5t84.5 63.5t81.5 23.5q38 0 69 -38t31 -101q0 -110 -84 -209t-173 -99q-50 0 -76.5 43.5t-26.5 88.5zM188 171q0 -53 16.5 -94.5t44.5 -41.5q40 0 75.5 72t35.5 147q0 52 -18 95.5t-45 43.5q-33 0 -71 -63.5t-38 -158.5z" />
    <glyph glyph-name="one.taboldstyle" unicode="&#xf644;" horiz-adv-x="490" 
d="M383 27l-4 -27h-258l6 27q57 3 70.5 14t21.5 51l52 271l-88 -39l6 29l145 81h49l-69 -345q-4 -18 -4 -29q0 -19 14 -25t59 -8z" />
    <glyph glyph-name="two.taboldstyle" unicode="&#xf645;" horiz-adv-x="490" 
d="M410 139h29l-59 -139h-310v35q28 31 59 58.5t52 43.5l69 51q20 15 40.5 32.5t45 51t24.5 61.5q0 17 -14.5 35t-47.5 18q-26 0 -50 -11t-40 -24t-47 -41l-16 17q101 108 198 108q53 0 85.5 -27.5t32.5 -71.5q0 -55 -41.5 -89.5t-157.5 -94.5q-66 -35 -101 -73h166
q32 0 47 10.5t36 49.5z" />
    <glyph glyph-name="three.taboldstyle" unicode="&#xf646;" horiz-adv-x="490" 
d="M160 137l7 33q175 75 175 158q0 24 -17 39.5t-41 15.5q-29 0 -57.5 -13t-44.5 -26t-45 -40l-19 17q51 60 110 87.5t105 27.5q50 0 78.5 -25.5t28.5 -64.5q0 -22 -10 -42t-22.5 -33t-36 -27.5t-37.5 -21.5t-39 -18q50 -6 80 -37t30 -76q0 -60 -34.5 -116t-85 -92.5
t-106 -58.5t-100.5 -22q-35 0 -56 10q-23 12 -23 37q0 18 8.5 32t23.5 14q16 0 64 -32q20 -13 48 -13q65 0 113 67t48 149q0 10 -1.5 21.5t-7.5 30t-21.5 30t-38.5 11.5q-29 0 -76 -22z" />
    <glyph glyph-name="four.taboldstyle" unicode="&#xf647;" horiz-adv-x="490" 
d="M455 90l-15 -68h-82l-45 -220h-91l43 220h-203v57q30 39 112 130.5t171 178.5q35 34 46 40.5t31 6.5q14 0 17 -4t1 -13l-68 -328h83zM111 90h169l49 241l-100 -105q-99 -112 -118 -136z" />
    <glyph glyph-name="five.taboldstyle" unicode="&#xf648;" horiz-adv-x="490" 
d="M400 446h26l-26 -91q-5 -19 -11.5 -25t-24.5 -6q-3 0 -56 2.5t-64 2.5q-20 0 -26.5 -3.5t-10.5 -14.5q-6 -15 -6 -27q0 -11 20 -16q181 -42 181 -185q0 -72 -44 -138.5t-107 -105t-121 -38.5q-38 0 -65 14t-27 31q0 12 16.5 35t33.5 23q14 0 45 -17q49 -26 66 -26
q46 0 88 48t42 122q0 28 -10 51.5t-24.5 37.5t-33.5 25t-33 16t-28 8q-35 8 -42.5 11t-7.5 9l3 18l42 172q8 32 17.5 37.5t54.5 5.5q9 0 48 -2.5t42 -2.5q23 0 30.5 6.5t12.5 22.5z" />
    <glyph glyph-name="six.taboldstyle" unicode="&#xf649;" horiz-adv-x="490" 
d="M495 634l11 -25q-235 -76 -301 -295q53 59 97.5 92t62.5 33q33 0 63.5 -46t30.5 -111q0 -108 -78.5 -200t-148.5 -92q-54 0 -99 61t-45 148q0 93 54 184t129 151q81 63 224 100zM184 194q0 -70 24.5 -113.5t58.5 -43.5q41 0 71 56.5t30 136.5q0 53 -16.5 93.5t-37.5 40.5
q-14 0 -42.5 -23.5t-49.5 -49.5q-38 -48 -38 -97z" />
    <glyph glyph-name="seven.taboldstyle" unicode="&#xf64a;" horiz-adv-x="490" 
d="M482 435v-45l-317 -568q-7 -12 -14.5 -16.5t-27.5 -4.5h-21q-24 0 -24 11q0 3 10 19l323 506h-24q-12 0 -68.5 2t-72.5 2q-48 0 -60.5 -6.5t-19.5 -29.5l-19 -58h-24l42 160q5 20 14.5 24t37.5 4q10 0 66 -2t65 -2q39 0 134 4z" />
    <glyph glyph-name="eight.taboldstyle" unicode="&#xf64b;" horiz-adv-x="490" 
d="M362 341q79 -76 79 -147q0 -58 -43.5 -107.5t-94.5 -73.5t-88 -24q-47 0 -86 52.5t-39 98.5q0 62 75 117q25 18 85 55q-23 25 -33 37t-20.5 35.5t-10.5 47.5q0 54 81 102t126 48q39 0 73 -34.5t34 -65.5q0 -68 -138 -141zM340 538q-21 0 -45.5 -24t-24.5 -50
q0 -24 17.5 -47.5t53.5 -57.5v-1q74 51 74 97q0 36 -29 59.5t-46 23.5zM261 28q29 0 66.5 35t37.5 85q0 76 -95 143q-91 -62 -91 -119q0 -43 29 -93.5t53 -50.5z" />
    <glyph glyph-name="nine.taboldstyle" unicode="&#xf64c;" horiz-adv-x="490" 
d="M55 -199l-10 24q122 45 187.5 103.5t106.5 173.5q-98 -107 -165 -107q-34 0 -62 39t-28 101q0 114 78.5 207t149.5 93q51 0 97.5 -58.5t46.5 -148.5q0 -106 -59 -199t-149.5 -150.5t-192.5 -77.5zM277 387q-38 0 -69.5 -50.5t-31.5 -140.5v-1q0 -55 15.5 -94.5
t38.5 -39.5q35 0 82.5 49t47.5 121q0 57 -22 106.5t-61 49.5z" />
    <glyph glyph-name="dollar.taboldstyle" unicode="&#xf653;" horiz-adv-x="490" 
d="M342 403l-37 -159q35 -30 52 -46.5t31.5 -42t14.5 -51.5q0 -46 -39.5 -80t-116.5 -35l-11 -53h-36l13 54q-50 6 -80.5 32.5t-30.5 57.5q0 19 14 32.5t33 13.5q20 0 30.5 -11t10.5 -23q0 -10 -2 -21.5t-2 -13.5q0 -29 33 -37l35 160q-44 38 -64.5 68t-20.5 69
q0 55 43 85.5t100 33.5l9 35h35l-7 -35q55 -7 79.5 -36t24.5 -60q0 -21 -11 -35t-32 -14q-17 0 -28 10.5t-11 29.5q0 10 3.5 23.5t3.5 16.5q0 25 -36 32zM275 271l30 132q-62 -12 -62 -62q0 -31 32 -70zM285 153l-32 -135q33 3 51 23t18 44q0 31 -37 68z" />
    <glyph glyph-name="cent.taboldstyle" unicode="&#xf654;" horiz-adv-x="490" 
d="M332 304l73 152h34l-74 -155q37 -13 37 -37q0 -13 -11 -22t-27 -9q-13 0 -27 7l-98 -206q7 -7 20 -7q32 0 92 51l24 -17q-83 -72 -158 -72l-76 -159h-33l78 163q-15 7 -23.5 12.5t-18.5 22t-10 39.5q0 31 15.5 75.5t47.5 83.5q26 31 54 49t43.5 22t37.5 7zM223 73l87 184
q-6 6 -20 6q-5 0 -11.5 -6t-15 -20.5t-16 -35t-14.5 -54.5t-10 -74z" />
    <glyph glyph-name="zero.denominator" unicode="&#xf655;" 
d="M207 331q48 0 72 -35t24 -78q0 -79 -48.5 -152.5t-118.5 -73.5q-42 0 -69 31.5t-27 85.5q0 46 20 96.5t60 88t87 37.5zM206 310q-43 0 -72 -92.5t-29 -153.5q0 -51 32 -51q24 0 39 23q24 37 43 108t19 116q0 50 -32 50z" />
    <glyph glyph-name="one.denominator" unicode="&#xf656;" 
d="M224 0h-164l5 17q33 1 42 6.5t15 34.5l48 203q-54 -31 -96 -46l5 25q99 41 138 91h36l-61 -261q-6 -23 -6 -32q0 -12 8.5 -15t34.5 -6z" />
    <glyph glyph-name="two.denominator" unicode="&#xf657;" 
d="M239 0h-220v17q114 97 164 153q40 46 40 84q0 15 -12 26t-33 11q-50 0 -76 -51h-27q10 33 32 55q38 36 91 36q40 0 67 -22.5t27 -53.5q0 -28 -31 -65q-41 -43 -168 -140h110q13 0 17 4.5t11 24.5h27z" />
    <glyph glyph-name="three.denominator" unicode="&#xf658;" 
d="M99 160l5 24q101 52 101 88q0 12 -8 22t-22 10q-25 0 -57 -32l-16 13q6 8 16 17t32.5 19t47.5 10q34 0 53 -15.5t19 -36.5t-19 -36.5t-61 -34.5q62 -10 62 -63q0 -57 -60.5 -105t-120.5 -48q-20 0 -38 6t-18 19q0 10 8 18t20 8q9 0 33 -14q18 -9 34 -9q27 0 50 36.5
t23 74.5q0 20 -11 32t-27 12q-13 0 -46 -15z" />
    <glyph glyph-name="four.denominator" unicode="&#xf659;" 
d="M136 -8l23 97h-120v40l211 202h30l-47 -200h56l-10 -42h-56l-23 -97h-64zM77 131h92l27 113z" />
    <glyph glyph-name="five.denominator" unicode="&#xf65a;" 
d="M92 167l48 154q30 2 113 1q16 0 22 9h24l-13 -57q-17 -2 -55 -2q-6 0 -39.5 0.5t-38.5 0.5l-17 -58q18 3 27 3q41 0 63 -24t22 -54q0 -56 -57.5 -102t-119.5 -46q-25 0 -40 8.5t-15 20.5q0 10 9 16.5t21 6.5t30 -11q19 -13 33 -13q29 0 53.5 34t24.5 72q0 44 -44 44
q-20 0 -38 -14z" />
    <glyph glyph-name="six.denominator" unicode="&#xf65b;" 
d="M319 331l-5 -20q-46 -12 -81.5 -37t-50.5 -44.5t-38 -55.5q33 14 56 14q33 0 53.5 -19.5t20.5 -49.5q0 -51 -42.5 -89t-94.5 -38q-41 0 -66 27t-25 68q0 79 75 152.5t198 91.5zM130 141q-22 -50 -22 -88q0 -6 1.5 -14t8.5 -16.5t18 -8.5q30 0 51 44t21 77q0 29 -24 29
q-18 0 -54 -23z" />
    <glyph glyph-name="seven.denominator" unicode="&#xf65c;" 
d="M156 -8h-54l164 280h-116q-30 0 -35 -5q-5 -6 -17 -40h-26l26 96h223v-18z" />
    <glyph glyph-name="eight.denominator" unicode="&#xf65d;" 
d="M138 164q-46 44 -45 78q0 33 31.5 61t81.5 28q38 0 65.5 -17.5t27.5 -47.5q0 -26 -22 -45.5t-69 -42.5q57 -55 57 -94q0 -37 -35.5 -65t-86.5 -28q-43 0 -71.5 21.5t-28.5 54.5q0 30 23.5 51t71.5 46zM190 194q52 34 52 74q0 16 -10 29.5t-31 13.5q-24 0 -38.5 -16
t-14.5 -36q0 -24 42 -65zM155 148q-56 -37 -56 -88q0 -18 10 -33t34 -15q25 0 43.5 17t18.5 40q0 32 -50 79z" />
    <glyph glyph-name="nine.denominator" unicode="&#xf65e;" 
d="M25 -9l5 20q35 10 62.5 25t48 36.5t31.5 36.5t28 41q-34 -14 -56 -14q-33 0 -53.5 19t-20.5 50q0 52 43 89.5t94 37.5q41 0 66 -26.5t25 -68.5q0 -80 -76.5 -154t-196.5 -92zM214 183q22 50 22 88q0 39 -28 39q-29 0 -50.5 -44t-21.5 -77q0 -29 24 -29q19 0 54 23z" />
    <glyph glyph-name="zero.numerator" unicode="&#xf661;" 
d="M253 633q49 0 73 -35t24 -78q0 -80 -49 -153.5t-118 -73.5q-42 0 -69 32t-27 86q0 46 20.5 96.5t60 88t85.5 37.5zM253 612q-43 0 -72 -92.5t-29 -153.5q0 -52 32 -52q25 0 39 23q24 37 43 108.5t19 116.5q0 50 -32 50z" />
    <glyph glyph-name="one.numerator" unicode="&#xf662;" 
d="M271 302h-164l6 17q32 1 41 6.5t15 34.5l48 203q-49 -29 -96 -46l5 25q99 41 138 90h36l-61 -260q-6 -28 -6 -32q0 -12 8.5 -15t34.5 -6z" />
    <glyph glyph-name="two.numerator" unicode="&#xf663;" 
d="M286 302h-220v17q114 97 164 153q40 46 40 85q0 36 -45 36q-55 0 -75 -51h-28q11 35 32 55q38 36 91 36q40 0 67 -22.5t27 -53.5q0 -28 -31 -65q-41 -43 -168 -140h110q13 0 17 4.5t11 24.5h27z" />
    <glyph glyph-name="three.numerator" unicode="&#xf664;" 
d="M146 462l5 24q101 50 101 88q0 12 -7.5 22t-22.5 10q-24 0 -62 -36l-16 12q44 51 101 51q34 0 53 -15t19 -37q0 -21 -19 -36.5t-61 -34.5q62 -10 62 -63q0 -57 -61 -105.5t-120 -48.5q-19 0 -37.5 5.5t-18.5 18.5q0 11 8.5 19t20.5 8q6 0 32 -14q18 -9 34 -9
q27 0 50 36.5t23 75.5q0 20 -11 32t-27 12q-13 0 -46 -15z" />
    <glyph glyph-name="four.numerator" unicode="&#xf665;" 
d="M184 293l22 97h-120v40l211 202h30l-47 -200h56l-10 -42h-56l-22 -97h-64zM124 432h92l27 113z" />
    <glyph glyph-name="five.numerator" unicode="&#xf666;" 
d="M139 470l48 153q30 2 113 1q17 0 22 9h24l-13 -57q-17 -2 -55 -2q-6 0 -39.5 0.5t-38.5 0.5l-17 -60q2 1 6.5 2t6.5 1q5 1 15 1q41 0 62.5 -24t21.5 -53q0 -56 -57.5 -102.5t-119.5 -46.5q-24 0 -39.5 8.5t-15.5 20.5q0 10 9 16.5t21 6.5t30 -11q18 -13 33 -13
q29 0 53.5 34.5t24.5 71.5q0 44 -44 44q-21 0 -38 -13z" />
    <glyph glyph-name="six.numerator" unicode="&#xf667;" 
d="M366 634l-5 -20q-35 -10 -62 -24.5t-48 -37t-31 -36t-28 -41.5q32 14 55 14q33 0 53.5 -19t20.5 -50q0 -52 -42.5 -89.5t-93.5 -37.5q-41 0 -66 26.5t-25 68.5q0 79 74.5 153t197.5 93zM178 442q-22 -50 -22 -88q0 -6 1.5 -14t8 -16.5t17.5 -8.5q30 0 51 44t21 77
q0 29 -24 29q-17 0 -53 -23z" />
    <glyph glyph-name="seven.numerator" unicode="&#xf668;" 
d="M203 293h-54l165 280h-121q-26 0 -31 -5q-5 -6 -17 -40h-26l26 96h223v-18z" />
    <glyph glyph-name="eight.numerator" unicode="&#xf669;" 
d="M185 466q-45 43 -45 78q0 33 31.5 61t81.5 28q38 0 65.5 -17.5t27.5 -47.5q0 -26 -22 -45.5t-69 -42.5q18 -18 27.5 -29t19.5 -29.5t10 -35.5q0 -37 -36 -65t-86 -28q-42 0 -70.5 21t-28.5 55q0 30 23 51t71 46zM238 496q51 37 51 74q0 16 -10 29.5t-31 13.5
q-24 0 -38.5 -16t-14.5 -36q0 -24 43 -65zM202 450q-55 -38 -55 -88q0 -18 10 -33t34 -15t42.5 17.5t18.5 39.5q0 31 -50 79z" />
    <glyph glyph-name="nine.numerator" unicode="&#xf66a;" 
d="M73 293l5 20q46 13 81.5 39t50.5 45.5t37 54.5q-34 -14 -55 -14q-33 0 -53.5 19.5t-20.5 49.5q0 51 43 89t94 38q40 0 65 -26.5t25 -68.5q0 -80 -75.5 -153.5t-196.5 -92.5zM261 485q22 50 22 88q0 39 -27 39q-30 0 -51 -43.5t-21 -77.5q0 -29 24 -29q19 0 53 23z" />
    <glyph glyph-name="one.fitted" unicode="&#xf6dc;" horiz-adv-x="380" 
d="M320 0h-260l5 25q53 1 69.5 15t27.5 67l85 415q-81 -60 -164 -94l7 34q166 81 229 175h47l-107 -525q-6 -33 -6 -47q0 -20 17.5 -28.5t54.5 -11.5z" />
    <glyph glyph-name="R_p" unicode="&#xf6dd;" horiz-adv-x="1140" 
d="M264 272l-27 -134q-9 -44 -9 -64q0 -29 19 -38t72 -9l-5 -27h-298l5 27q61 0 81.5 23t37.5 106l67 331q8 40 8 56q0 27 -18.5 39.5t-59.5 12.5l5 27h305q84 0 131 -44t47 -110q0 -69 -51.5 -119t-138.5 -66l54 -83q54 -82 88 -116q57 -57 144 -57v-27l-7 -1
q-36 -5 -70 -5q-101 0 -165 64q-28 28 -83.5 113t-68.5 101h-63zM867 -232h-256l5 27q54 0 73 18t34 89l82 405q6 28 -5 28q-13 0 -64 -60l-19 15q45 55 87.5 89t66.5 34q29 0 29 -37q0 -11 -4 -31l-17 -82l2 -2q46 65 95.5 108.5t76.5 43.5q29 0 49.5 -42.5t20.5 -100.5
q0 -104 -74 -192.5t-175 -88.5q-25 0 -49 5l-24 -114q-6 -31 -6 -44q0 -23 16.5 -32t60.5 -9zM271 304h35q90 0 148.5 44t58.5 125q0 56 -32.5 86.5t-96.5 30.5h-55zM868 208l-33 -162q32 -27 62 -27q56 0 96.5 71.5t40.5 171.5q0 84 -30 84q-28 0 -136 -138z" />
    <glyph glyph-name="cent.inferior" unicode="&#xf6df;" horiz-adv-x="189" 
d="M150 214l51 107h24l-52 -109q26 -10 26 -26q0 -9 -8 -15.5t-19 -6.5q-9 0 -19 5l-69 -145q5 -5 14 -5q24 0 65 36l17 -12q-58 -51 -111 -51l-54 -112h-23l55 115q-37 17 -37 52q0 58 45 112q40 48 95 55zM73 51l61 130q-4 4 -14 4q-6 0 -15 -11.5t-18.5 -44t-13.5 -78.5z
" />
    <glyph glyph-name="cent.superior" unicode="&#xf6e0;" horiz-adv-x="189" 
d="M208 522l51 107h24l-52 -109q26 -10 26 -26q0 -9 -8 -15.5t-19 -6.5q-9 0 -19 5l-69 -145q5 -5 14 -5q24 0 65 36l17 -12q-58 -51 -111 -51l-54 -112h-23l55 115q-37 17 -37 52q0 58 45 112q40 48 95 55zM131 359l61 130q-4 4 -14 4q-6 0 -15 -11.5t-18.5 -44
t-13.5 -78.5z" />
    <glyph glyph-name="comma.inferior" unicode="&#xf6e1;" horiz-adv-x="180" 
d="M17 -100l-11 16q60 26 60 63q0 17 -12 34q-10 15 -10 25q0 15 11 25t28 10q20 0 33 -13.5t13 -38.5q0 -32 -26 -67t-86 -54z" />
    <glyph glyph-name="comma.superior" unicode="&#xf6e2;" horiz-adv-x="180" 
d="M62 172l-11 16q60 26 60 63q0 17 -12 34q-10 15 -10 25q0 15 11 25t28 10q20 0 33 -13.5t13 -38.5q0 -32 -26 -67t-86 -54z" />
    <glyph glyph-name="dollar.inferior" unicode="&#xf6e3;" horiz-adv-x="252" 
d="M181 285l-26 -113q25 -22 36.5 -33t22 -29.5t10.5 -36.5q0 -32 -28 -56t-82 -25l-8 -37h-25l9 38q-35 4 -56.5 23t-21.5 40q0 14 9.5 23.5t23.5 9.5t21.5 -8t7.5 -16q0 -7 -1.5 -15t-1.5 -10q0 -21 23 -27l25 114q-31 26 -45.5 47.5t-14.5 48.5q0 39 30.5 60.5t70.5 22.5
l6 26h25l-5 -27q38 -5 55.5 -24t17.5 -39q0 -14 -7.5 -24t-22.5 -10q-28 0 -28 25q0 7 2.5 16.5t2.5 11.5q0 19 -25 24zM134 191l21 94q-44 -8 -44 -45q0 -21 23 -49zM141 108l-23 -97q24 2 36.5 17t12.5 32q0 22 -26 48z" />
    <glyph glyph-name="dollar.superior" unicode="&#xf6e4;" horiz-adv-x="252" 
d="M241 594l-26 -113q25 -22 36.5 -33t22 -29.5t10.5 -36.5q0 -32 -28 -56t-82 -25l-8 -37h-25l9 38q-35 4 -56.5 23t-21.5 40q0 14 9.5 23.5t23.5 9.5t21.5 -8t7.5 -16q0 -7 -1.5 -15t-1.5 -10q0 -22 23 -28l25 115q-31 26 -45.5 47.5t-14.5 48.5q0 39 30.5 60.5t70.5 22.5
l6 26h25l-5 -27q38 -5 55.5 -24t17.5 -39q0 -14 -7.5 -24t-22.5 -10q-28 0 -28 25q0 7 2.5 16t2.5 12q0 19 -25 24zM194 500l21 94q-44 -8 -44 -45q0 -21 23 -49zM201 417l-23 -97q24 2 36.5 17t12.5 32q0 22 -26 48z" />
    <glyph glyph-name="hyphen.inferior" unicode="&#xf6e5;" horiz-adv-x="216" 
d="M30 93l11 52h169l-12 -52h-168z" />
    <glyph glyph-name="hyphen.superior" unicode="&#xf6e6;" horiz-adv-x="216" 
d="M70 365l11 52h169l-12 -52h-168z" />
    <glyph glyph-name="period.inferior" unicode="&#xf6e7;" horiz-adv-x="180" 
d="M84 71q16 0 25.5 -9.5t9.5 -24.5q0 -18 -13 -31.5t-32 -13.5q-16 0 -25.5 10t-9.5 24q0 16 12.5 30.5t32.5 14.5z" />
    <glyph glyph-name="period.superior" unicode="&#xf6e8;" horiz-adv-x="180" 
d="M129 343q16 0 25.5 -9.5t9.5 -24.5q0 -18 -13 -31.5t-32 -13.5q-15 0 -25 10t-10 24q0 16 12.5 30.5t32.5 14.5z" />
    <glyph glyph-name="b.superior" unicode="&#xf6ea;" horiz-adv-x="270" 
d="M156 627l-44 -193l2 -2q87 87 121 87q13 0 25 -24.5t12 -57.5q0 -74 -53.5 -124.5t-125.5 -50.5q-30 0 -47.5 16t-17.5 42q0 18 8 50l52 240q0 3 1 7t1.5 7t0.5 5q0 8 -6 8q-8 0 -37 -17l-7 11q17 11 55.5 26t52.5 15q12 0 12 -15q0 -7 -5 -30zM108 404l-15 -60
q-5 -23 -5 -31q0 -28 29 -28q31 0 59 42.5t28 98.5q0 42 -15 42q-16 0 -81 -64z" />
    <glyph glyph-name="d.superior" unicode="&#xf6eb;" horiz-adv-x="287" 
d="M189 612l-6 15q74 45 115 45q11 0 11 -13q0 -9 -4 -28l-65 -293l-2.5 -10l-2.5 -10t-1 -5q0 -7 5 -7q7 0 34 29l11 -14q-52 -59 -95 -59q-22 0 -22 23q0 17 13 66l-1 1q-38 -48 -65 -69t-56 -21q-17 0 -28 20t-11 50q0 74 53.5 130.5t101.5 56.5q20 0 39 -20l24 107
q4 18 3 23t-7 5q-7 0 -44 -22zM187 387l16 69q-15 37 -40 37q-14 0 -26 -12q-21 -19 -35.5 -60.5t-14.5 -78.5q0 -38 16 -38q8 0 32.5 23.5t51.5 59.5z" />
    <glyph glyph-name="e.superior" unicode="&#xf6ec;" horiz-adv-x="234" 
d="M207 321l13 -15q-54 -43 -115 -43q-35 0 -56.5 22.5t-21.5 57.5q0 68 49.5 122t112.5 54q28 0 44.5 -11.5t16.5 -28.5q0 -19 -12.5 -35t-38.5 -28t-46 -19t-54 -17q-4 -18 -4 -34q0 -20 10.5 -36t31.5 -16q27 0 70 27zM104 400q17 6 28 11t25.5 14t22 21.5t7.5 28.5
q0 23 -14 23q-34 0 -69 -98z" />
    <glyph glyph-name="i.superior" unicode="&#xf6ed;" horiz-adv-x="162" 
d="M146 648q12 0 19.5 -8.5t7.5 -20.5q0 -18 -10.5 -36.5t-31.5 -18.5q-12 0 -21 7.5t-9 22.5q0 18 11.5 36t33.5 18zM42 315l31 141q3 10 -2 10q-3 0 -30 -27l-15 17q68 63 95 63q23 0 23 -19q0 -5 -3 -23l-35 -156q-3 -12 2 -12q4 0 31 27l15 -17q-17 -19 -42.5 -37.5
t-45.5 -18.5q-11 0 -18 5.5t-8.5 10t-1.5 9.5q0 11 4 27z" />
    <glyph glyph-name="l.superior" unicode="&#xf6ee;" horiz-adv-x="162" 
d="M43 335l61 276q2 6 2 13t-5 7q-8 0 -35 -18l-10 17q75 42 104 42q15 0 15 -16q0 -11 -4 -29l-67 -298q-3 -15 -3 -21q0 -4 3 -4q5 0 41 30l16 -16q-58 -55 -91 -55q-13 0 -23 7.5t-10 22.5t6 42z" />
    <glyph glyph-name="m.superior" unicode="&#xf6ef;" horiz-adv-x="460" 
d="M52 440l-13 16q60 63 89 63q24 0 24 -21q0 -5 -2 -15l-16 -72q46 53 76.5 80.5t54.5 27.5q27 0 27 -27q0 -10 -3 -22l-13 -59q93 108 132 108q10 0 18.5 -7t8.5 -19t-4 -27l-33 -148q-2 -10 2 -10q5 0 37 37l18 -11q-56 -71 -92 -71q-13 0 -22.5 7.5t-9.5 20.5q0 15 3 24
l30 130q3 13 3 18t-4 5q-5 0 -48 -48q-16 -18 -25 -29.5t-20 -35.5t-18 -54l-5 -22q-2 -11 -6.5 -13.5t-15.5 -2.5h-24q-18 0 -18 11l3 14l35 157q3 15 3 16q0 6 -5 6q-6 0 -47 -46q-27 -30 -39.5 -51.5t-22.5 -64.5l-5 -24q-2 -11 -5.5 -14.5t-15.5 -3.5h-25q-18 0 -18 10
l2 16l34 153q0 2 1.5 7.5t1.5 7.5q0 5 -3 5q-7 0 -25 -22z" />
    <glyph glyph-name="r.superior" unicode="&#xf6f1;" horiz-adv-x="198" 
d="M43 442l-17 14q59 63 90 63q24 0 24 -24t-22 -103q21 49 32.5 70.5t28 39t36.5 17.5q27 0 27 -26q0 -16 -9 -25t-21 -9q-2 0 -10 1.5t-11 1.5q-12 0 -21 -15t-33 -69q-17 -39 -35 -104q-3 -11 -17 -11h-33q-16 0 -12 19l33 168q4 19 0 19q-5 0 -30 -27z" />
    <glyph glyph-name="s.superior" unicode="&#xf6f2;" horiz-adv-x="225" 
d="M59 434q0 24 33.5 54.5t72.5 30.5q25 0 40.5 -12t15.5 -29q0 -14 -9.5 -23t-22.5 -9q-21 0 -31 22q-6 15 -9.5 19t-10.5 4q-9 0 -16 -8.5t-7 -18.5q0 -13 33 -49l22 -25.5t13 -21.5t6 -26q0 -30 -30 -54.5t-84 -24.5q-26 0 -49 8.5t-23 24.5q0 11 9.5 18t23.5 7
q18 0 56 -23q13 -8 25 -8q21 0 21 21q0 11 -6 19.5t-25 29.5q-31 35 -39.5 47.5t-8.5 26.5z" />
    <glyph glyph-name="t.superior" unicode="&#xf6f3;" horiz-adv-x="171" 
d="M39 324l35 159h-33l4 18q56 19 102 90h26q-17 -38 -29 -78h52l-7 -30h-52l-35 -157q-4 -12 -4 -17t7 -5q4 0 14 6.5l23 15.5t17 12l14 -17q-75 -58 -107 -58t-32 29q0 14 5 32z" />
    <glyph glyph-name="fi" unicode="&#xfb01;" horiz-adv-x="504" 
d="M224 402h142q58 0 100 7l-54 -338q-5 -34 6 -34q14 0 70 56l16 -16q-90 -88 -135 -88q-53 0 -41 75l47 297h-160l-35 -230q-33 -213 -112 -292q-71 -71 -167 -71q-35 0 -56 14t-21 38q0 17 12 28t31 11q20 0 48 -25t51 -25q40 0 68.5 48t45.5 162l52 342h-68l5 25
q46 7 72 16q30 128 96.5 198.5t155.5 70.5q41 0 68.5 -17t27.5 -43q0 -17 -12 -29t-30 -12q-25 0 -50 31.5t-52 31.5q-47 0 -76 -56.5t-45 -174.5z" />
    <glyph glyph-name="fl" unicode="&#xfb02;" horiz-adv-x="504" 
d="M451 661l23 10h34l-94 -594q-6 -39 3 -39q16 0 71 55l17 -16q-88 -88 -133 -88q-29 0 -39 17t-4 56l47 299h-161l-39 -261q-11 -75 -40.5 -149.5t-66.5 -111.5q-71 -71 -169 -71q-35 0 -55.5 14t-20.5 38q0 16 12.5 27.5t30.5 11.5q20 0 49 -25.5t50 -25.5q83 0 114 206
l52 347h-69l5 25q42 7 72 16q30 140 100.5 204.5t153.5 64.5q30 0 57 -10zM223 402h159l30 185q-35 46 -68 46q-92 0 -121 -231z" />
    <glyph glyph-name="a.superior" horiz-adv-x="279" 
d="M269 519l-40 -185q-3 -18 -3 -19q0 -6 5 -6q3 0 14.5 10t15.5 15l12 -16q-62 -56 -88 -56q-25 0 -25 31q0 17 5 39q-76 -69 -100 -69q-18 0 -30.5 19t-12.5 43q0 67 68 131t179 63zM173 369l23 105q-49 -4 -72 -29q-35 -37 -35 -106q0 -30 11 -30q6 0 32.5 23t40.5 37z
" />
    <glyph glyph-name="o.superior" horiz-adv-x="261" 
d="M191 519q33 0 51 -27.5t18 -63.5q0 -70 -58.5 -117.5t-105.5 -47.5q-36 0 -53.5 27.5t-17.5 61.5q0 70 57.5 118.5t108.5 48.5zM158 490q-25 0 -45 -40t-20 -87q0 -28 9 -50t27 -22q23 0 43 40.5t20 88.5q0 33 -10.5 51.5t-23.5 18.5z" />
    <glyph glyph-name="one.superior" 
d="M292 410h-164l6 17q32 1 41 6.5t15 34.5l48 203q-49 -29 -96 -46l5 25q99 41 138 90h36l-61 -260q-6 -28 -6 -32q0 -12 8.5 -15t34.5 -6z" />
    <glyph glyph-name="two.superior" 
d="M307 410h-220v17q114 97 164 153q40 46 40 85q0 36 -45 36q-55 0 -75 -51h-28q11 35 32 55q38 36 91 36q40 0 67 -22.5t27 -53.5q0 -28 -31 -65q-41 -43 -168 -140h110q13 0 17 4.5t11 24.5h27z" />
    <glyph glyph-name="three.superior" 
d="M167 570l5 24q101 50 101 88q0 12 -7.5 22t-22.5 10q-24 0 -62 -36l-16 12q44 51 101 51q34 0 53 -15t19 -37q0 -21 -19 -36.5t-61 -34.5q62 -10 62 -63q0 -57 -61 -105.5t-120 -48.5q-19 0 -37.5 5.5t-18.5 18.5q0 11 8.5 19t20.5 8q6 0 32 -14q18 -9 34 -9
q27 0 50 36.5t23 75.5q0 20 -11 32t-27 12q-13 0 -46 -15z" />
    <glyph glyph-name="emdash.alt" horiz-adv-x="1000" 
d="M170 255h750v-78h-750v78z" />
    <glyph glyph-name="slash.frac" horiz-adv-x="171" 
d="M-200 -40l574 678h60l-569 -678h-65z" />
    <glyph glyph-name="space.frac" horiz-adv-x="140" 
 />
    <glyph glyph-name="uni00A0.frac" horiz-adv-x="140" 
 />
    </font>
</defs>
</svg>
